<svg xmlns="http://www.w3.org/2000/svg" width="20.4" height="19.46" viewBox="0 0 20.4 19.46"><defs><style>.a,.b{fill:none;stroke:#5e5e5e;stroke-linecap:round;stroke-linejoin:round;stroke-width:0.45px;}.a{stroke-dasharray:5.44 5.44;}</style></defs><title>Kelloggs_sprite</title><circle class="a" cx="10.06" cy="10.58" r="8.66" transform="translate(-1.99 18.82) rotate(-80.78)"/><polygon class="b" points="2 6.43 2.55 7.54 3.77 7.72 2.89 8.59 3.1 9.81 2 9.23 0.9 9.81 1.11 8.59 0.23 7.72 1.45 7.54 2 6.43"/><polygon class="b" points="18.4 6.43 18.95 7.54 20.17 7.72 19.28 8.59 19.49 9.81 18.4 9.23 17.3 9.81 17.51 8.59 16.62 7.72 17.85 7.54 18.4 6.43"/><polygon class="b" points="10.06 0.23 10.61 1.34 11.84 1.51 10.95 2.38 11.16 3.6 10.06 3.02 8.97 3.6 9.18 2.38 8.29 1.51 9.52 1.34 10.06 0.23"/><polygon class="b" points="15.16 15.75 15.71 16.86 16.94 17.04 16.05 17.9 16.26 19.12 15.16 18.55 14.07 19.12 14.28 17.9 13.39 17.04 14.62 16.86 15.16 15.75"/><polygon class="b" points="4.93 15.75 5.48 16.86 6.7 17.04 5.81 17.9 6.02 19.12 4.93 18.55 3.83 19.12 4.04 17.9 3.15 17.04 4.38 16.86 4.93 15.75"/><polyline class="b" points="6.71 7.9 8.11 13.04 10 7.9 11.89 13.04 13.42 7.9"/></svg>