<svg xmlns="http://www.w3.org/2000/svg" width="15.12" height="20.91" viewBox="0 0 15.12 20.91"><defs><style>.a{fill:#d31245;}</style></defs><title>Kelloggs_sprite</title><path class="a" d="M5.82,20.91a.64.64,0,0,1-.62-.63v-4.2l-5-7.47a1,1,0,0,1-.05-1A1,1,0,0,1,1,7h13.1a1,1,0,0,1,.89.53,1,1,0,0,1-.05,1l-5,7.47v2.69a.62.62,0,0,1-.37.57L6.07,20.85A.54.54,0,0,1,5.82,20.91ZM1,7.54a.5.5,0,0,0-.45.27.49.49,0,0,0,0,.52L5.7,15.92v4.36a.12.12,0,0,0,0,.1.11.11,0,0,0,.07,0l3.53-1.53a.12.12,0,0,0,.07-.11V15.92l5.11-7.59a.49.49,0,0,0,0-.52.5.5,0,0,0-.45-.27Z"/><polygon class="a" points="11.8 7.29 11.3 7.29 11.3 2.12 10.15 0.5 3.59 0.5 3.59 7.29 3.09 7.29 3.09 0 10.41 0 11.8 1.96 11.8 7.29"/><rect class="a" x="5.92" y="2.39" width="3.04" height="0.5"/><rect class="a" x="5.92" y="4.42" width="3.04" height="0.5"/><rect class="a" x="7.31" y="10.24" width="0.5" height="2.76"/></svg>