<svg xmlns="http://www.w3.org/2000/svg" width="10.85" height="10.37" viewBox="0 0 10.85 10.37"><defs><style>.a{fill:none;stroke:#5e5e5e;stroke-linecap:round;stroke-linejoin:round;stroke-width:0.37px;}</style></defs><title>Kelloggs_sprite</title><path class="a" d="M.19,5.9a1,1,0,0,0,.31.71,3,3,0,0,0,2.07.72,2.92,2.92,0,0,0,2.06-.72A1,1,0,0,0,5,5.9"/><path class="a" d="M5,7.33A1,1,0,0,1,4.63,8"/><path class="a" d="M.5,8a1,1,0,0,1-.31-.71"/><path class="a" d="M.19,3a1,1,0,0,0,.31.72,3,3,0,0,0,2.07.71,2.92,2.92,0,0,0,2.06-.71A1.06,1.06,0,0,0,5,3"/><ellipse class="a" cx="2.57" cy="1.61" rx="2.38" ry="1.43"/><path class="a" d="M.19,4.47a1,1,0,0,0,.31.72,3,3,0,0,0,2.07.71,3,3,0,0,0,2.06-.71A1.06,1.06,0,0,0,5,4.47"/><path class="a" d="M.19,8.76c0,.79,1.06,1.43,2.38,1.43S5,9.55,5,8.76"/><path class="a" d="M.5,8a3,3,0,0,0,2.07.72A2.92,2.92,0,0,0,4.63,8"/><polyline class="a" points="4.95 8.76 4.95 7.33 4.95 5.9 4.95 4.47 4.95 3.04 4.95 1.61"/><polyline class="a" points="0.18 8.76 0.18 7.33 0.18 5.9 0.18 4.47 0.18 3.04 0.18 1.61"/><path class="a" d="M5.9,8.76a1,1,0,0,0,.32.71,2.91,2.91,0,0,0,2.06.72,2.91,2.91,0,0,0,2.06-.72,1,1,0,0,0,.32-.71"/><path class="a" d="M5.9,5.9a1,1,0,0,0,.32.71,2.91,2.91,0,0,0,2.06.72,2.91,2.91,0,0,0,2.06-.72,1,1,0,0,0,.32-.71"/><ellipse class="a" cx="8.28" cy="4.47" rx="2.38" ry="1.43"/><path class="a" d="M5.9,7.33A1,1,0,0,0,6.22,8a2.91,2.91,0,0,0,2.06.72A2.91,2.91,0,0,0,10.34,8a1,1,0,0,0,.32-.71"/><polyline class="a" points="10.66 4.47 10.66 5.9 10.66 7.33 10.66 8.76"/><polyline class="a" points="5.9 4.47 5.9 5.9 5.9 7.33 5.9 8.76"/></svg>