<svg xmlns="http://www.w3.org/2000/svg" width="22.6" height="22.65" viewBox="0 0 22.6 22.65"><defs><style>.a,.b,.c{fill:none;stroke-miterlimit:10;}.a,.b{stroke:#5e5e5e;}.a,.c{stroke-width:0.5px;}.b{stroke-width:0.2px;}.c{stroke:#d31245;}</style></defs><title>Kelloggs_sprite</title><rect class="a" x="6.72" y="6.56" width="9.32" height="9.32" rx="4.66"/><line class="a" x1="11.38" y1="6.08" x2="11.38" y2="2.52"/><circle class="a" cx="11.47" cy="1.37" r="1.12"/><line class="a" x1="11.56" y1="16.36" x2="11.56" y2="20.13"/><circle class="a" cx="11.47" cy="21.28" r="1.12"/><line class="a" x1="16.52" y1="11.22" x2="20.08" y2="11.22"/><circle class="a" cx="21.22" cy="11.31" r="1.12"/><line class="a" x1="15.16" y1="7.42" x2="17.44" y2="5.3"/><circle class="a" cx="18.34" cy="4.59" r="1.12"/><line class="a" x1="14.97" y1="15" x2="17.28" y2="17.89"/><circle class="a" cx="17.92" cy="18.85" r="1.12"/><line class="a" x1="6.23" y1="11.22" x2="2.52" y2="11.22"/><circle class="a" cx="1.37" cy="11.31" r="1.12"/><line class="a" x1="7.65" y1="7.62" x2="5.16" y2="5.3"/><circle class="a" cx="4.26" cy="4.59" r="1.12"/><line class="a" x1="7.72" y1="14.89" x2="5.32" y2="17.89"/><circle class="a" cx="4.68" cy="18.85" r="1.12"/><circle class="b" cx="11.38" cy="11.22" r="2.28"/><rect class="c" x="6.72" y="6.56" width="9.32" height="9.32" rx="4.66"/><line class="c" x1="11.38" y1="6.08" x2="11.38" y2="2.52"/><circle class="c" cx="11.47" cy="1.37" r="1.12"/><line class="c" x1="11.56" y1="16.36" x2="11.56" y2="20.13"/><circle class="c" cx="11.47" cy="21.28" r="1.12"/><line class="c" x1="16.52" y1="11.22" x2="20.08" y2="11.22"/><circle class="c" cx="21.22" cy="11.31" r="1.12"/><line class="c" x1="15.16" y1="7.42" x2="17.44" y2="5.3"/><circle class="c" cx="18.34" cy="4.59" r="1.12"/><line class="c" x1="14.97" y1="15" x2="17.28" y2="17.89"/><circle class="c" cx="17.92" cy="18.85" r="1.12"/><line class="c" x1="6.23" y1="11.22" x2="2.52" y2="11.22"/><circle class="c" cx="1.37" cy="11.31" r="1.12"/><line class="c" x1="7.65" y1="7.62" x2="5.16" y2="5.3"/><circle class="c" cx="4.26" cy="4.59" r="1.12"/><line class="c" x1="7.72" y1="14.89" x2="5.32" y2="17.89"/><circle class="c" cx="4.68" cy="18.85" r="1.12"/><circle class="c" cx="11.38" cy="11.22" r="2.28"/></svg>