<svg xmlns="http://www.w3.org/2000/svg" width="17.61" height="17.83" viewBox="0 0 17.61 17.83"><defs><style>.a{fill:#5e5e5e;}</style></defs><title>Kelloggs_sprite</title><path class="a" d="M6.76,14A.8.8,0,0,1,6,13l.32-1.86L4.94,9.84A.82.82,0,0,1,4.73,9a.8.8,0,0,1,.65-.54l1.87-.28L8.08,6.5a.82.82,0,0,1,.72-.44.79.79,0,0,1,.72.44l.84,1.7,1.86.27a.78.78,0,0,1,.65.54.8.8,0,0,1-.2.83l-1.35,1.32L11.64,13a.8.8,0,0,1-.32.79.82.82,0,0,1-.85.06L8.8,13l-1.67.88A.81.81,0,0,1,6.76,14Zm2-1.47a.46.46,0,0,1,.23.06l1.67.88a.33.33,0,0,0,.33,0,.3.3,0,0,0,.12-.29l-.32-1.86A.47.47,0,0,1,11,10.8l1.35-1.32a.32.32,0,0,0,.08-.31A.32.32,0,0,0,12.15,9l-1.87-.27a.47.47,0,0,1-.37-.27L9.08,6.73a.32.32,0,0,0-.55,0L7.69,8.42a.47.47,0,0,1-.37.27L5.45,9a.3.3,0,0,0-.24.21.3.3,0,0,0,.07.31L6.64,10.8a.51.51,0,0,1,.14.44L6.46,13.1a.29.29,0,0,0,.12.29.31.31,0,0,0,.32,0l1.67-.88A.46.46,0,0,1,8.8,12.48Z"/><path class="a" d="M16.67,17.83H.94A.93.93,0,0,1,0,16.9V3.11a.94.94,0,0,1,.94-.94H3.15V4.06H4.84V2.17h7.7V4.06h1.69V2.17h2.44a.94.94,0,0,1,.94.94V16.9A.93.93,0,0,1,16.67,17.83ZM.94,2.67a.44.44,0,0,0-.44.44V16.9a.44.44,0,0,0,.44.43H16.67a.44.44,0,0,0,.44-.43V3.11a.44.44,0,0,0-.44-.44H14.73V4.56H12V2.67H5.34V4.56H2.65V2.67Z"/><path class="a" d="M5.34,4.56H2.65V0H5.34Zm-2.19-.5H4.84V.5H3.15Z"/><path class="a" d="M14.73,4.56H12V0h2.69Zm-2.19-.5h1.69V.5H12.54Z"/></svg>