<svg xmlns="http://www.w3.org/2000/svg" width="20.78" height="21.5" viewBox="0 0 20.78 21.5"><defs><style>.a{fill:none;stroke:#be0f34;stroke-linecap:round;stroke-linejoin:round;stroke-width:0.5px;}</style></defs><title>Kelloggs_sprite</title><line class="a" x1="0.25" y1="5.76" x2="5.5" y2="5.76"/><path class="a" d="M12.73,5.05a1,1,0,0,0,2,0c0-.54-.41-.79-1-1s-1-.44-1-1a1,1,0,0,1,2,0"/><line class="a" x1="13.71" y1="1.56" x2="13.71" y2="2.12"/><line class="a" x1="13.71" y1="6.03" x2="13.71" y2="6.59"/><circle class="a" cx="13.71" cy="4.07" r="3.82"/><polygon class="a" points="13.71 15.94 18.41 15.94 20.52 9.45 13.71 9.45 6.9 9.45 9.02 15.94 13.71 15.94"/><line class="a" x1="6.9" y1="9.45" x2="5.5" y2="5.76"/><path class="a" d="M11.31,20.2a1,1,0,1,1-1-1.05A1,1,0,0,1,11.31,20.2Z"/><path class="a" d="M18.21,20.2a1,1,0,1,1-1.05-1.05A1,1,0,0,1,18.21,20.2Z"/><line class="a" x1="10.35" y1="17.66" x2="17.08" y2="17.66"/></svg>