<svg xmlns="http://www.w3.org/2000/svg" width="21.13" height="21.08" viewBox="0 0 21.13 21.08"><defs><style>.a{fill:#d31245;}</style></defs><title>Kelloggs_sprite</title><path class="a" d="M7.9,15.33a1,1,0,0,1-.55-.18A.92.92,0,0,1,7,14.24L7.37,12,5.7,10.28a.91.91,0,0,1-.24-.95.92.92,0,0,1,.75-.63l2.3-.34L9.58,6.25a.93.93,0,0,1,1.67,0l1,2.08,2.33.37a.93.93,0,0,1,.76.63.91.91,0,0,1-.24.95l-1.66,1.63.37,2.33a.92.92,0,0,1-.37.91.91.91,0,0,1-1,.07l-2.05-1.08L8.33,15.22A.84.84,0,0,1,7.9,15.33Zm2.51-1.69a.58.58,0,0,1,.26.06l2.06,1.08a.41.41,0,0,0,.45,0,.43.43,0,0,0,.17-.42L13,12a.55.55,0,0,1,.16-.49l1.66-1.62a.44.44,0,0,0,.11-.45.42.42,0,0,0-.35-.29l-2.3-.33a.56.56,0,0,1-.41-.3l-1-2.09a.45.45,0,0,0-.77,0L9,8.56a.57.57,0,0,1-.42.3l-2.3.33a.42.42,0,0,0-.34.29.44.44,0,0,0,.1.45l1.67,1.62a.56.56,0,0,1,.16.49l-.4,2.29a.44.44,0,0,0,.18.42.43.43,0,0,0,.45,0l2.06-1.08A.54.54,0,0,1,10.41,13.64Z"/><path class="a" d="M10.41,2.63a1.32,1.32,0,1,1,1.32-1.32A1.32,1.32,0,0,1,10.41,2.63Zm0-2.13a.81.81,0,0,0-.81.81.82.82,0,0,0,.81.82.82.82,0,0,0,.82-.82A.82.82,0,0,0,10.41.5Z"/><path class="a" d="M17.8,6.09h-.13a1.29,1.29,0,0,1-.89-.47A1.32,1.32,0,0,1,17,3.77h0a1.32,1.32,0,0,1,1.85.17,1.35,1.35,0,0,1,.29,1,1.31,1.31,0,0,1-1.3,1.18Zm-.53-1.94A.85.85,0,0,0,17,4.7a.82.82,0,0,0,.19.6.77.77,0,0,0,.55.29.8.8,0,0,0,.59-.18.82.82,0,0,0,.11-1.15.83.83,0,0,0-1.15-.11Z"/><path class="a" d="M19.82,14a1.06,1.06,0,0,1-.25,0,1.31,1.31,0,0,1-.84-.55,1.28,1.28,0,0,1-.2-1,1.3,1.3,0,0,1,.55-.84,1.33,1.33,0,0,1,1.83.35,1.37,1.37,0,0,1,.2,1A1.31,1.31,0,0,1,19.82,14Zm0-2.12a.81.81,0,0,0-.8.66.8.8,0,0,0,.64,1,.81.81,0,0,0,.83-1.26.78.78,0,0,0-.52-.34h-.15Z"/><path class="a" d="M15,20.58a1.18,1.18,0,0,1-.37,0,1.31,1.31,0,0,1-.79-.63,1.34,1.34,0,0,1-.1-1,1.29,1.29,0,0,1,.63-.78,1.32,1.32,0,0,1,1.78.52A1.31,1.31,0,0,1,15,20.58Zm0-2.12a.76.76,0,0,0-.39.1.81.81,0,0,0-.33,1.1.83.83,0,0,0,.49.39.79.79,0,0,0,.62-.07.78.78,0,0,0,.39-.48.79.79,0,0,0-.07-.62A.82.82,0,0,0,15,18.46Z"/><path class="a" d="M6.88,21.08a1.19,1.19,0,0,1-.49-.1,1.31,1.31,0,1,1,1.71-.73h0a1.3,1.3,0,0,1-.7.72A1.39,1.39,0,0,1,6.88,21.08Zm0-2.13a.71.71,0,0,0-.32.07.79.79,0,0,0-.44.44.81.81,0,0,0,0,.63.82.82,0,0,0,1.07.42.78.78,0,0,0,.43-.44A.82.82,0,0,0,6.88,19Z"/><path class="a" d="M1.31,15.12A1.33,1.33,0,0,1,.06,14.2a1.34,1.34,0,0,1,.09-1,1.32,1.32,0,0,1,.76-.65,1.36,1.36,0,0,1,1,.09,1.32,1.32,0,0,1,.65.76,1.36,1.36,0,0,1-.09,1,1.31,1.31,0,0,1-.77.65h0A1.34,1.34,0,0,1,1.31,15.12Zm0-2.13a.69.69,0,0,0-.25,0,.83.83,0,0,0-.48.4.79.79,0,0,0,0,.62.83.83,0,0,0,.4.48.79.79,0,0,0,.62.05h0a.83.83,0,0,0,.48-.4.79.79,0,0,0,0-.62.83.83,0,0,0-.4-.48A.84.84,0,0,0,1.32,13Z"/><path class="a" d="M2.37,7a1.31,1.31,0,0,1-.71-.21h0A1.31,1.31,0,0,1,1.26,5a1.31,1.31,0,0,1,1.82-.4A1.32,1.32,0,0,1,2.37,7ZM1.93,6.4a.8.8,0,0,0,1.12-.24A.81.81,0,0,0,2.81,5a.87.87,0,0,0-.61-.11.84.84,0,0,0-.52.36A.81.81,0,0,0,1.93,6.4Z"/><rect class="a" x="10.16" y="2.43" width="0.5" height="2.61"/><rect class="a" x="14.61" y="6.11" width="2.56" height="0.5" transform="translate(-0.41 11.59) rotate(-39.6)"/><rect class="a" x="17.09" y="10.99" width="0.5" height="2.55" transform="translate(2.06 27.02) rotate(-79.28)"/><rect class="a" x="13.45" y="15.83" width="0.5" height="2.6" transform="translate(-6.56 8.72) rotate(-28.79)"/><rect class="a" x="6.32" y="17.17" width="2.66" height="0.5" transform="matrix(0.37, -0.93, 0.93, 0.37, -11.36, 18.1)"/><rect class="a" x="2.24" y="12.72" width="2.7" height="0.5" transform="translate(-3.83 1.74) rotate(-17.97)"/><rect class="a" x="4.15" y="5.65" width="0.5" height="2.69" transform="matrix(0.54, -0.84, 0.84, 0.54, -3.86, 6.96)"/></svg>