<svg xmlns="http://www.w3.org/2000/svg" width="23.18" height="14.24" viewBox="0 0 23.18 14.24"><defs><style>.a{fill:#5e5e5e;}</style></defs><title>Kelloggs_sprite</title><path class="a" d="M18.77,14.24a7.69,7.69,0,0,1-4.1-1,.48.48,0,0,1-.2-.24,3.38,3.38,0,0,1-.12-1A1.87,1.87,0,0,1,15.44,10a5.81,5.81,0,0,0,1.64-.74l.29.41a6.33,6.33,0,0,1-1.79.81c-.69.24-.72,1-.73,1.46a2.44,2.44,0,0,0,.09.82,7.06,7.06,0,0,0,3.83.94,7.47,7.47,0,0,0,3.83-.93,3.25,3.25,0,0,0,.08-.89c0-.54-.12-1.19-.77-1.41a6.31,6.31,0,0,1-1.74-.79l.27-.42a5.74,5.74,0,0,0,1.62.73,1.86,1.86,0,0,1,1.12,1.88A3.54,3.54,0,0,1,23.07,13a.52.52,0,0,1-.2.24A7.86,7.86,0,0,1,18.77,14.24Z"/><path class="a" d="M4.42,14.24a8.12,8.12,0,0,1-4.1-1A.55.55,0,0,1,.12,13,3.54,3.54,0,0,1,0,12,1.89,1.89,0,0,1,1.09,10,6,6,0,0,0,2.74,9.3L3,9.71a6.18,6.18,0,0,1-1.79.81c-.69.24-.72,1-.73,1.46a2.69,2.69,0,0,0,.09.82,7.49,7.49,0,0,0,3.83.94,7.62,7.62,0,0,0,3.83-.94,2.8,2.8,0,0,0,.08-.88c0-.54-.12-1.19-.77-1.41a6.46,6.46,0,0,1-1.74-.79l.27-.42A5.59,5.59,0,0,0,7.71,10a1.86,1.86,0,0,1,1.12,1.88A3.69,3.69,0,0,1,8.72,13a.55.55,0,0,1-.2.25A8.18,8.18,0,0,1,4.42,14.24Z"/><path class="a" d="M18.73,9.34h0a2.1,2.1,0,0,1-1.61-.7,3.85,3.85,0,0,1-.7-2.72,2.29,2.29,0,0,1,1.12-2,2.56,2.56,0,0,1,2.46,0,2.31,2.31,0,0,1,1.11,2,4,4,0,0,1-.7,2.71,2.1,2.1,0,0,1-1.61.7Zm0-.5h.07A1.62,1.62,0,0,0,20,8.31,3.46,3.46,0,0,0,20.61,6a1.84,1.84,0,0,0-.86-1.65,2.08,2.08,0,0,0-1-.25,2,2,0,0,0-1,.24A1.81,1.81,0,0,0,16.92,6a3.46,3.46,0,0,0,.57,2.36A1.64,1.64,0,0,0,18.73,8.84Z"/><path class="a" d="M4.38,9.34h0a2.1,2.1,0,0,1-1.61-.7,3.91,3.91,0,0,1-.7-2.72,2.31,2.31,0,0,1,1.12-2,2.56,2.56,0,0,1,2.46,0,2.29,2.29,0,0,1,1.11,2,4,4,0,0,1-.7,2.71,2.1,2.1,0,0,1-1.61.7Zm0-.5h.07a1.66,1.66,0,0,0,1.24-.53A3.53,3.53,0,0,0,6.26,6,1.84,1.84,0,0,0,5.4,4.32a2.08,2.08,0,0,0-1-.25,2,2,0,0,0-1,.24A1.83,1.83,0,0,0,2.57,6a3.56,3.56,0,0,0,.57,2.36A1.64,1.64,0,0,0,4.38,8.84Z"/><path class="a" d="M11.59,8.06a5.87,5.87,0,0,1-3-.75.52.52,0,0,1-.2-.24,2.6,2.6,0,0,1-.09-.78,1.45,1.45,0,0,1,.86-1.5,4.17,4.17,0,0,0,1.17-.52l.28.41a4.46,4.46,0,0,1-1.3.59c-.45.15-.5.6-.51,1a1.79,1.79,0,0,0,.06.58,5.34,5.34,0,0,0,2.75.67,5.27,5.27,0,0,0,2.76-.67,2.25,2.25,0,0,0,.05-.63c0-.4-.06-.84-.54-1a4.73,4.73,0,0,1-1.28-.58l.3-.41A4.08,4.08,0,0,0,14,4.78a1.43,1.43,0,0,1,.9,1.47,2.34,2.34,0,0,1-.09.82.45.45,0,0,1-.19.24A5.89,5.89,0,0,1,11.59,8.06Z"/><path class="a" d="M11.61,4.42h0a1.64,1.64,0,0,1-1.25-.55,3,3,0,0,1-.54-2.06A1.78,1.78,0,0,1,10.65.24,1.89,1.89,0,0,1,11.58,0a2,2,0,0,1,1,.25,1.76,1.76,0,0,1,.86,1.57,2.78,2.78,0,0,1-.53,2.05,1.68,1.68,0,0,1-1.25.55Zm0-.5h0a1.18,1.18,0,0,0,.89-.38,2.44,2.44,0,0,0,.41-1.68A1.31,1.31,0,0,0,12.29.68,1.34,1.34,0,0,0,11.58.5a1.45,1.45,0,0,0-.69.17,1.33,1.33,0,0,0-.62,1.17,2.51,2.51,0,0,0,.41,1.7A1.19,1.19,0,0,0,11.57,3.92Z"/></svg>