<svg xmlns="http://www.w3.org/2000/svg" width="17.71" height="15.46" viewBox="0 0 17.71 15.46"><defs><style>.a{fill:#5e5e5e;}</style></defs><title>Kelloggs_sprite</title><polygon class="a" points="17.71 15.46 0 15.46 0 0.42 0.5 0.42 0.5 14.96 17.71 14.96 17.71 15.46"/><polygon class="a" points="5.84 15.24 5.34 15.24 5.34 9.16 3.05 9.16 3.05 15.24 2.55 15.24 2.55 8.66 5.84 8.66 5.84 15.24"/><polygon class="a" points="10.62 15.17 10.12 15.17 10.12 7.5 7.83 7.5 7.83 15.17 7.33 15.17 7.33 7 10.62 7 10.62 15.17"/><polygon class="a" points="15.4 15.1 14.9 15.1 14.9 5.91 12.61 5.91 12.61 15.1 12.11 15.1 12.11 5.41 15.4 5.41 15.4 15.1"/><polygon class="a" points="2.33 6.12 2.06 5.7 9.22 1.09 9.23 3.92 15.27 0.9 15.49 1.35 8.73 4.72 8.73 2 2.33 6.12"/><polygon class="a" points="15.62 2.9 15.14 2.79 15.56 0.95 13.69 0.48 13.81 0 16.16 0.58 15.62 2.9"/></svg>