<svg xmlns="http://www.w3.org/2000/svg" width="18.23" height="17.32" viewBox="0 0 18.23 17.32"><defs><style>.a,.b{fill:none;stroke:#d31245;stroke-miterlimit:10;}.a{stroke-width:0.5px;}.b{stroke-width:0.4px;}</style></defs><title>Kelloggs_sprite</title><path class="a" d="M.34,8.91V17L18,17.07l-.05-8.36H16.2V2.52H13.6v7.89L10.11,8.59l.07,2.09L6.66,8.57l.07,2-3.16-2v2L.29,8.27S.34,8.86.34,8.91Z"/><rect class="b" x="2.33" y="12.68" width="1.38" height="1.26"/><rect class="b" x="6.08" y="12.68" width="1.38" height="1.26"/><rect class="b" x="10.41" y="12.68" width="1.38" height="1.26"/><rect class="b" x="14.15" y="12.68" width="1.38" height="1.26"/><line class="b" x1="0.29" y1="15.33" x2="17.95" y2="15.33"/><path class="b" d="M14.36,2s.14-1,1-1c0,0-.18-.83.82-.83"/></svg>