<svg xmlns="http://www.w3.org/2000/svg" width="43.24" height="40.07" viewBox="0 0 43.24 40.07"><defs><style>.a{fill:#fff;}.b{fill:none;stroke:#fff;stroke-miterlimit:10;stroke-width:0.5px;}</style></defs><title>Kelloggs_Sprite</title><rect class="a" x="35.71" y="2.99" width="0.67" height="2.43"/><rect class="a" x="34.83" y="3.87" width="2.43" height="0.67"/><rect class="a" x="0.88" y="27.7" width="0.67" height="2.43"/><rect class="a" y="28.58" width="2.43" height="0.67"/><path class="a" d="M8.65,0A1.35,1.35,0,0,1,7.47,1.19,1.35,1.35,0,0,1,8.65,2.37,1.37,1.37,0,0,1,9.84,1.19,1.37,1.37,0,0,1,8.65,0Z"/><path class="a" d="M36.05,34.42a1.36,1.36,0,0,1-1.19,1.19,1.35,1.35,0,0,1,1.19,1.18,1.35,1.35,0,0,1,1.18-1.18,1.36,1.36,0,0,1-1.18-1.19Z"/><path class="a" d="M8.25,40.07a.4.4,0,1,1,.4-.4A.4.4,0,0,1,8.25,40.07Zm0-.55a.15.15,0,1,0,.15.15A.15.15,0,0,0,8.25,39.52Z"/><path class="a" d="M9.77,40.07a.4.4,0,1,1,.4-.4A.4.4,0,0,1,9.77,40.07Zm0-.55a.15.15,0,1,0,0,.3.15.15,0,0,0,0-.3Z"/><path class="a" d="M11.28,40.07a.4.4,0,1,1,.4-.4A.4.4,0,0,1,11.28,40.07Zm0-.55a.15.15,0,1,0,.15.15A.15.15,0,0,0,11.28,39.52Z"/><path class="a" d="M41.23,22.74a1.86,1.86,0,0,1-.95-.39c-.23-.15-.47-.3-.6-.25a1.78,1.78,0,0,0-.37.24,2,2,0,0,1-.51.32,1.25,1.25,0,0,1-1.19-.25c-.23-.18-.48-.36-.64-.34a1.37,1.37,0,0,0-.46.26,2.28,2.28,0,0,1-.3.21,1.11,1.11,0,0,1-1.21,0l-.29-.2a1.26,1.26,0,0,0-.46-.27,1.23,1.23,0,0,0-.65.28,1.28,1.28,0,0,1-1.19.31,2.14,2.14,0,0,1-.5-.32,1.78,1.78,0,0,0-.37-.24c-.14-.06-.34,0-.57.18a1.61,1.61,0,0,1-1.11.45,1.67,1.67,0,0,1-.75-.38l-.25-.18.33-.54.3.21a1.22,1.22,0,0,0,.46.26c.16,0,.41-.16.63-.32a1.21,1.21,0,0,1,1.2-.26,2.43,2.43,0,0,1,.51.32,2.31,2.31,0,0,0,.37.24c.13.05.37-.11.6-.26a1.67,1.67,0,0,1,1.08-.38,1.8,1.8,0,0,1,.75.39l.25.18a.52.52,0,0,0,.54,0l.25-.18a1.67,1.67,0,0,1,.75-.38,1.52,1.52,0,0,1,1.1.44.68.68,0,0,0,.58.19,2.31,2.31,0,0,0,.37-.24,2,2,0,0,1,.51-.32,1.24,1.24,0,0,1,1.18.3c.24.15.48.31.65.28a1.09,1.09,0,0,0,.46-.26l.29-.21a1.16,1.16,0,0,1,1.22,0l-.34.54a.48.48,0,0,0-.54,0,2,2,0,0,0-.25.18,1.78,1.78,0,0,1-.75.38Z"/><path class="a" d="M26.79,17.55a.22.22,0,0,1-.15-.06l-.6-.84a.26.26,0,0,1-.09-.18A.22.22,0,0,1,26,16.3a.21.21,0,0,1,.17-.07.25.25,0,0,1,.16.06l.45.41.43-.41a.25.25,0,0,1,.16-.06.21.21,0,0,1,.17.07.24.24,0,0,1,0,.33l-.6.88A.3.3,0,0,1,26.79,17.55Z"/><path class="a" d="M26.79,28a.22.22,0,0,1-.15-.06l-.6-.84A.26.26,0,0,1,26,27a.22.22,0,0,1,.06-.17.21.21,0,0,1,.17-.08.31.31,0,0,1,.16.06l.45.42.43-.41a.26.26,0,0,1,.16-.07.21.21,0,0,1,.17.08.19.19,0,0,1,.06.16.22.22,0,0,1-.07.17l-.6.88A.3.3,0,0,1,26.79,28Z"/><path class="b" d="M12.83,33.18a2.24,2.24,0,0,1-2.24-2.24V8.82a2.25,2.25,0,0,1,2.24-2.24H26.76a.09.09,0,0,1,.08,0l5.3,5.3a.11.11,0,0,1,0,.09V30.94a2.24,2.24,0,0,1-2.24,2.24Zm0-26.36a2,2,0,0,0-2,2V30.94a2,2,0,0,0,2,2H29.94a2,2,0,0,0,2-2V12.3H26.48a.11.11,0,0,1-.12-.11V6.82Z"/><path class="a" d="M14.27,12.08a.13.13,0,0,1-.12-.12.12.12,0,0,1,.12-.12H16a.11.11,0,0,1,.11.12.12.12,0,0,1-.11.12Z"/><path class="a" d="M18.11,12.08A.12.12,0,0,1,18,12a.11.11,0,0,1,.11-.12h1.72A.12.12,0,0,1,20,12a.13.13,0,0,1-.12.12Z"/><path class="a" d="M14.56,18.9a.74.74,0,0,1-.74-.74V15.62a.74.74,0,0,1,.74-.74H28.21a.74.74,0,0,1,.74.74v2.54a.74.74,0,0,1-.74.74Zm0-3.78a.5.5,0,0,0-.51.5v2.54a.51.51,0,0,0,.51.51H28.21a.51.51,0,0,0,.51-.51V15.62a.5.5,0,0,0-.51-.5Z"/><path class="a" d="M14.27,22.55a.12.12,0,0,1-.12-.11.12.12,0,0,1,.12-.12H16a.11.11,0,0,1,.11.12.11.11,0,0,1-.11.11Z"/><path class="a" d="M18.11,22.55a.11.11,0,0,1-.11-.11.11.11,0,0,1,.11-.12h1.72a.12.12,0,0,1,.12.12.12.12,0,0,1-.12.11Z"/><path class="a" d="M14.56,29.38a.74.74,0,0,1-.74-.74V26.1a.74.74,0,0,1,.74-.74H28.21a.74.74,0,0,1,.74.74v2.54a.74.74,0,0,1-.74.74Zm0-3.79a.51.51,0,0,0-.51.51v2.54a.5.5,0,0,0,.51.5H28.21a.5.5,0,0,0,.51-.5V26.1a.51.51,0,0,0-.51-.51Z"/></svg>