<svg xmlns="http://www.w3.org/2000/svg" width="21.33" height="21.01" viewBox="0 0 21.33 21.01"><defs><style>.a{fill:#a5a5a5;}</style></defs><title>Kelloggs_Sprite</title><path class="a" d="M4.38,21h-4A.38.38,0,0,1,0,20.63V.38A.38.38,0,0,1,.38,0h4a.38.38,0,0,1,.38.38V20.63A.38.38,0,0,1,4.38,21ZM.75,20.26H4V.75H.75Z"/><rect class="a" x="7.56" y="0.38" width="13.39" height="3.15"/><path class="a" d="M21,3.9H7.56a.37.37,0,0,1-.37-.38V.38A.37.37,0,0,1,7.56,0H21a.38.38,0,0,1,.38.38V3.52A.38.38,0,0,1,21,3.9Zm-13-.75H20.58V.75H7.94Z"/><path class="a" d="M21,21H7.56a.37.37,0,0,1-.37-.38V6.5a.37.37,0,0,1,.37-.38H21a.38.38,0,0,1,.38.38V20.63A.38.38,0,0,1,21,21Zm-13-.75H20.58V6.87H7.94Z"/><path class="a" d="M21,11.58H7.56a.38.38,0,0,1,0-.75H21a.38.38,0,1,1,0,.75Z"/><path class="a" d="M21,16.29H7.56a.36.36,0,0,1-.37-.37.37.37,0,0,1,.37-.38H21a.38.38,0,0,1,.38.38A.37.37,0,0,1,21,16.29Z"/><path class="a" d="M12,20.51a.37.37,0,0,1-.37-.37V6.76a.38.38,0,0,1,.75,0V20.14A.37.37,0,0,1,12,20.51Z"/><path class="a" d="M16.49,20.51a.37.37,0,0,1-.38-.37V6.76a.38.38,0,0,1,.75,0V20.14A.37.37,0,0,1,16.49,20.51Z"/></svg>