<svg xmlns="http://www.w3.org/2000/svg" width="26.81" height="26.74" viewBox="0 0 26.81 26.74"><defs><style>.a,.b{fill:none;stroke:#5e5e5e;}.a{stroke-miterlimit:10;stroke-width:0.63px;}.b{stroke-linecap:round;stroke-linejoin:round;stroke-width:0.75px;}</style></defs><title>Kelloggs_Sprite</title><circle class="a" cx="13.21" cy="1.67" r="1.35"/><circle class="a" cx="22.57" cy="6.07" r="1.35"/><circle class="a" cx="25.14" cy="16.09" r="1.35"/><circle class="a" cx="19.05" cy="24.45" r="1.35"/><circle class="a" cx="8.73" cy="25.08" r="1.35"/><circle class="a" cx="1.67" cy="17.51" r="1.35"/><circle class="a" cx="3" cy="7.26" r="1.35"/><line class="a" x1="13.21" y1="3.09" x2="13.21" y2="6.4"/><line class="a" x1="21.41" y1="7.04" x2="18.91" y2="9.11"/><line class="a" x1="23.59" y1="15.87" x2="20.41" y2="15.27"/><line class="a" x1="18.18" y1="23.18" x2="16.59" y2="20.29"/><line class="a" x1="9.09" y1="23.67" x2="10.33" y2="20.53"/><line class="a" x1="2.92" y1="16.98" x2="6.17" y2="15.92"/><line class="a" x1="4.14" y1="7.96" x2="7.02" y2="9.79"/><circle class="a" cx="13.03" cy="13.71" r="4.21"/><circle class="b" cx="13.21" cy="1.67" r="1.35"/><circle class="b" cx="22.57" cy="6.07" r="1.35"/><circle class="b" cx="25.14" cy="16.09" r="1.35"/><circle class="b" cx="19.05" cy="24.45" r="1.35"/><circle class="b" cx="8.73" cy="25.08" r="1.35"/><circle class="b" cx="1.67" cy="17.51" r="1.35"/><circle class="b" cx="3" cy="7.26" r="1.35"/><line class="b" x1="13.21" y1="3.09" x2="13.21" y2="6.4"/><line class="b" x1="21.41" y1="7.04" x2="18.91" y2="9.11"/><line class="b" x1="23.59" y1="15.87" x2="20.41" y2="15.27"/><line class="b" x1="18.18" y1="23.18" x2="16.59" y2="20.29"/><line class="b" x1="9.09" y1="23.67" x2="10.33" y2="20.53"/><line class="b" x1="2.92" y1="16.98" x2="6.17" y2="15.92"/><line class="b" x1="4.14" y1="7.96" x2="7.02" y2="9.79"/><circle class="b" cx="13.03" cy="13.71" r="4.21"/></svg>