<svg xmlns="http://www.w3.org/2000/svg" width="20" height="20" viewBox="0 0 20 20"><defs><style>.a{fill:#5e5b5c;}.b{fill:none;stroke:#5e5b5c;stroke-linecap:round;stroke-linejoin:round;stroke-width:0.6px;}</style></defs><title>Kelloggs_Sprite</title><path class="a" d="M.33,20A.33.33,0,0,1,0,19.68V15.59a.33.33,0,0,1,.33-.33.33.33,0,0,1,.32.33v3.76H4.41a.33.33,0,1,1,0,.65Z"/><path class="a" d="M4.41,19.44H.56V15.59a.24.24,0,0,0-.47,0v4.09a.24.24,0,0,0,.24.23H4.41a.24.24,0,0,0,0-.47Z"/><path class="a" d="M15.59,20a.33.33,0,1,1,0-.65h3.76V15.59a.32.32,0,0,1,.32-.33.33.33,0,0,1,.33.33v4.09a.33.33,0,0,1-.33.32Z"/><path class="a" d="M19.67,15.36a.23.23,0,0,0-.23.23v3.85H15.59a.24.24,0,1,0,0,.47h4.08a.24.24,0,0,0,.24-.23V15.59A.23.23,0,0,0,19.67,15.36Z"/><path class="a" d="M19.67,4.74a.32.32,0,0,1-.32-.33V.65H15.59a.33.33,0,0,1-.33-.33A.33.33,0,0,1,15.59,0h4.08A.33.33,0,0,1,20,.32V4.41A.33.33,0,0,1,19.67,4.74Z"/><path class="a" d="M19.67.09H15.59a.24.24,0,0,0-.24.23.24.24,0,0,0,.24.24h3.85V4.41a.23.23,0,0,0,.23.23.23.23,0,0,0,.24-.23V.32A.24.24,0,0,0,19.67.09Z"/><path class="a" d="M.33,4.74A.33.33,0,0,1,0,4.41V.32A.33.33,0,0,1,.33,0H4.41a.33.33,0,0,1,.33.32.33.33,0,0,1-.33.33H.65V4.41A.33.33,0,0,1,.33,4.74Z"/><path class="a" d="M.33,4.64a.23.23,0,0,0,.23-.23V.56H4.41a.24.24,0,0,0,0-.47H.33A.24.24,0,0,0,.09.32V4.41A.23.23,0,0,0,.33,4.64Z"/><path class="b" d="M17.63,9.43a7.63,7.63,0,0,1-15.26,0"/><path class="b" d="M12.6,8.16c2.93.14,5,.53,5,1s-3.42,1-7.63,1-7.63-.47-7.63-1S5.79,8.09,10,8.09"/><path class="b" d="M8.68,10l5.26-6.59A1.19,1.19,0,1,1,15.67,5l-5.23,5"/><circle class="b" cx="6.93" cy="12.45" r="0.53"/><circle class="b" cx="9.21" cy="14.41" r="0.53"/><circle class="b" cx="13.19" cy="12.19" r="0.53"/><circle class="b" cx="12.37" cy="14.67" r="0.53"/></svg>