<svg xmlns="http://www.w3.org/2000/svg" width="15.08" height="20.75" viewBox="0 0 15.08 20.75"><defs><style>.a{fill:none;stroke:#5e5e5e;stroke-miterlimit:10;stroke-width:0.75px;}</style></defs><title>Kelloggs_Sprite</title><path class="a" d="M7.71,7.27H1.12a.75.75,0,0,0-.66.4.74.74,0,0,0,0,.76l5,7.38V20a.36.36,0,0,0,.16.31.44.44,0,0,0,.21.07.42.42,0,0,0,.15,0l3.4-1.48a.38.38,0,0,0,.22-.34V15.81l5-7.38a.74.74,0,0,0,0-.76.75.75,0,0,0-.66-.4H7.71Z"/><polyline class="a" points="3.4 7.28 3.4 0.38 10.21 0.38 11.46 2.13 11.46 7.28"/><line class="a" x1="5.93" y1="2.72" x2="8.9" y2="2.72"/><line class="a" x1="5.93" y1="4.7" x2="8.9" y2="4.7"/><line class="a" x1="7.54" y1="10.17" x2="7.54" y2="12.88"/></svg>