<svg xmlns="http://www.w3.org/2000/svg" width="67.06" height="61.5" viewBox="0 0 67.06 61.5"><defs><style>.a{fill:none;}.a,.b{stroke:#d11245;stroke-miterlimit:10;stroke-width:1.5px;}.b{fill:#d11245;}</style></defs><title>Kelloggs_Sprite</title><path class="a" d="M38.16,7.4a26.08,26.08,0,0,0-7.25-6c-9,5-15.28,16.26-15.28,29.39s6.28,24.42,15.28,29.39c6.74-3.72,12-11,14.15-19.9"/><path class="a" d="M55.14,48.23A30,30,0,1,1,42.26,3"/><path class="a" d="M35.34,20.33a30.24,30.24,0,0,1-4.59.35,29.94,29.94,0,0,1-22.33-10"/><path class="a" d="M8.68,50.86A30,30,0,0,1,52.92,51"/><line class="a" x1="30.91" y1="1.36" x2="30.91" y2="59.22"/><path class="a" d="M54.35,5.91a12,12,0,0,0-12,12c0,8.18,10.7,20.2,11.16,20.71a1.08,1.08,0,0,0,1.6,0c.46-.51,11.16-12.53,11.16-20.71A12,12,0,0,0,54.35,5.91Z"/><circle class="b" cx="54.35" cy="17.88" r="6.02"/></svg>