<svg xmlns="http://www.w3.org/2000/svg" width="26.12" height="20.8" viewBox="0 0 26.12 20.8"><defs><style>.a{fill:none;stroke:#5e5e5e;stroke-miterlimit:10;stroke-width:0.75px;}</style></defs><title>Kelloggs_Sprite</title><line class="a" x1="8.22" y1="2.1" x2="13" y2="3.88"/><polygon class="a" points="13 0.4 8.22 2.14 8.22 7.79 13 9.53 17.78 7.79 17.78 2.14 13 0.4"/><line class="a" x1="17.78" y1="2.1" x2="13" y2="3.88"/><line class="a" x1="13" y1="3.88" x2="13" y2="9.53"/><line class="a" x1="0.38" y1="12.97" x2="5.16" y2="14.75"/><polygon class="a" points="5.16 11.27 0.38 13.01 0.38 18.66 5.16 20.4 9.94 18.66 9.94 13.01 5.16 11.27"/><line class="a" x1="9.94" y1="12.97" x2="5.16" y2="14.75"/><line class="a" x1="5.16" y1="14.75" x2="5.16" y2="20.4"/><line class="a" x1="16.18" y1="12.97" x2="20.96" y2="14.75"/><polygon class="a" points="20.96 11.27 16.18 13.01 16.18 18.66 20.96 20.4 25.75 18.66 25.75 13.01 20.96 11.27"/><line class="a" x1="25.75" y1="12.97" x2="20.96" y2="14.75"/><line class="a" x1="20.96" y1="14.75" x2="20.96" y2="20.4"/><path class="a" d="M5.16,11.64A7.82,7.82,0,0,1,8.22,5.42"/><path class="a" d="M16.36,18.72a7.82,7.82,0,0,1-6.81,0"/><path class="a" d="M17.78,5.42a7.82,7.82,0,0,1,3.06,6.22"/></svg>