<svg xmlns="http://www.w3.org/2000/svg" width="20.48" height="20.75" viewBox="0 0 20.48 20.75"><defs><style>.a{fill:none;stroke:#5e5e5e;stroke-miterlimit:10;stroke-width:0.75px;}</style></defs><title>Kelloggs_Sprite</title><path class="a" d="M14.5,11.23a.62.62,0,0,0,.16-.66.63.63,0,0,0-.51-.43L12,9.83a.29.29,0,0,1-.21-.16l-1-1.95a.64.64,0,0,0-1.15,0l-1,2a.32.32,0,0,1-.22.16l-2.15.31a.64.64,0,0,0-.52.43.66.66,0,0,0,.16.66l1.56,1.52a.27.27,0,0,1,.08.25l-.36,2.15a.63.63,0,0,0,.92.67l1.93-1a.24.24,0,0,1,.26,0l1.93,1a.67.67,0,0,0,.3.08.7.7,0,0,0,.38-.13.64.64,0,0,0,.25-.62L12.86,13a.29.29,0,0,1,.08-.25Z"/><path class="a" d="M20.11,3.68v15.9a.79.79,0,0,1-.79.8H1.17a.79.79,0,0,1-.79-.8V3.68a.79.79,0,0,1,.79-.8H3.43V5.06H6V2.88h8.31V5.06H16.8V2.88h2.52A.79.79,0,0,1,20.11,3.68Z"/><rect class="a" x="3.43" y="0.38" width="2.53" height="4.69"/><rect class="a" x="14.27" y="0.38" width="2.53" height="4.69"/></svg>