<svg xmlns="http://www.w3.org/2000/svg" width="28.21" height="22.14" viewBox="0 0 28.21 22.14"><defs><style>.a{fill:none;stroke-linecap:round;stroke-linejoin:round;stroke-width:0.99px;}.a,.c{stroke:#e82343;}.b,.c{fill:#e82343;}.c{stroke-miterlimit:10;stroke-width:0.96px;}</style></defs><title>Kelloggs_Sprite</title><path class="a" d="M12.12,21H1.81A1.3,1.3,0,0,1,.5,19.73V3A1.31,1.31,0,0,1,1.81,1.73h18A1.31,1.31,0,0,1,21.11,3v8.12"/><line class="a" x1="0.5" y1="5.2" x2="20.88" y2="5.2"/><line class="a" x1="5.13" y1="0.5" x2="5.13" y2="3.01"/><line class="a" x1="10.89" y1="0.5" x2="10.89" y2="3.01"/><line class="a" x1="16.51" y1="0.5" x2="16.51" y2="3.01"/><path class="b" d="M10.26,16.53a.4.4,0,0,1-.15,0L7.78,15.21,5.35,16.5a.32.32,0,0,1-.14,0A.35.35,0,0,1,5,16.48a.3.3,0,0,1-.12-.29l.45-2.77-1.93-2a.28.28,0,0,1-.07-.3.3.3,0,0,1,.24-.21l2.62-.4L7.46,7.93a.29.29,0,0,1,.27-.17A.28.28,0,0,1,8,7.93l1.18,2.5,2.69.45a.33.33,0,0,1,.24.2.32.32,0,0,1-.07.31l-1.91,1.95.43,2.85a.31.31,0,0,1-.13.29A.26.26,0,0,1,10.26,16.53Z"/><path class="a" d="M12.12,20.74a7.8,7.8,0,0,1,15.59,0"/><path class="a" d="M16,21.3a3.89,3.89,0,0,1,7.77,0"/><line class="a" x1="15.75" y1="14.49" x2="18.19" y2="17.83"/><line class="a" x1="21.73" y1="17.88" x2="24.14" y2="14.38"/><circle class="c" cx="19.92" cy="20.74" r="0.92"/><line class="a" x1="20.44" y1="20.53" x2="25.38" y2="18.36"/></svg>