<svg xmlns="http://www.w3.org/2000/svg" width="12.57" height="12.83" viewBox="0 0 12.57 12.83"><defs><style>.a{fill:#f9f8f7;}</style></defs><title>Kelloggs_Sprite</title><path class="a" d="M0,0V12.83H12.57V2.25L10.32,0H0ZM.52.52H2.36V4.71H9.69V.52h.41l2,2v9.84H10.47V6.81H1.83v5.5H.52Zm2.36,0H9.16V4.19H2.88Zm4.19.53V3.67H8.64V1.05Zm.52.52h.53V3.14H7.59ZM2.36,7.33H10v5H2.36Zm1,.79a.26.26,0,0,0-.26.26.26.26,0,0,0,.26.26H5.24a.26.26,0,0,0,.26-.26.26.26,0,0,0-.26-.26Zm0,1a.27.27,0,0,0,0,.53H6a.27.27,0,0,0,0-.53Zm3.41,0a.24.24,0,0,0-.26.26.26.26,0,0,0,.07.18.27.27,0,0,0,.19.08A.25.25,0,0,0,7,9.61a.27.27,0,0,0,.08-.18A.27.27,0,0,0,7,9.24.23.23,0,0,0,6.81,9.17Z"/></svg>