<svg xmlns="http://www.w3.org/2000/svg" width="12" height="12" viewBox="0 0 12 12"><defs><style>.a{fill:#bc0f34;}</style></defs><title>Kelloggs_Sprite</title><path class="a" d="M11.48,0H.52A.52.52,0,0,0,0,.52v11A.52.52,0,0,0,.52,12h11a.52.52,0,0,0,.52-.52V.52A.52.52,0,0,0,11.48,0ZM11,11H1V1H11V11Z"/><path class="a" d="M4.82,9a.21.21,0,0,1-.16-.06L2.43,6.68a.24.24,0,0,1,0-.32L3,5.75a.19.19,0,0,1,.16-.07.22.22,0,0,1,.16.07L4.82,7.21,8.64,3.38a.24.24,0,0,1,.32,0L9.57,4a.25.25,0,0,1,.06.16.25.25,0,0,1-.06.17L5,8.91A.25.25,0,0,1,4.82,9Z"/></svg>