<svg xmlns="http://www.w3.org/2000/svg" width="13.89" height="12.82" viewBox="0 0 13.89 12.82"><defs><style>.a{fill:#a09f9f;}</style></defs><title>Kelloggs_Sprite</title><path class="a" d="M11.75,10.42a2.4,2.4,0,0,1-2.4,2.4H2.4A2.41,2.41,0,0,1,0,10.42V3.47a2.41,2.41,0,0,1,2.4-2.4H4.53a.27.27,0,0,1,.27.26.26.26,0,0,1-.22.27,6,6,0,0,0-1.11.5.28.28,0,0,1-.13,0H2.4A1.34,1.34,0,0,0,1.07,3.47v7A1.34,1.34,0,0,0,2.4,11.75h7a1.34,1.34,0,0,0,1.33-1.33V8.63a.28.28,0,0,1,.15-.24,1.77,1.77,0,0,0,.46-.31A.26.26,0,0,1,11.58,8a.27.27,0,0,1,.17.24Zm-1.22-3.1a.52.52,0,0,1-.38.16.78.78,0,0,1-.21,0,.55.55,0,0,1-.32-.5V5.34H8.28c-1.84,0-3,.35-3.66,1.1s-.87,2-.61,3.94a.3.3,0,0,1-.17.29h-.1a.3.3,0,0,1-.22-.1A7.69,7.69,0,0,1,2.14,6.94c0-2.23.7-4.8,6.14-4.8H9.62V.53A.54.54,0,0,1,9.94,0a.78.78,0,0,1,.21,0,.57.57,0,0,1,.38.16l3.2,3.2a.54.54,0,0,1,0,.76Z"/></svg>