<svg xmlns="http://www.w3.org/2000/svg" xmlns:xlink="http://www.w3.org/1999/xlink" width="32.69" height="30.72" viewBox="0 0 32.69 30.72"><defs><style>.a{fill:url(#a);}.b{fill:#d31145;}.c{fill:none;stroke:#d31145;stroke-miterlimit:10;}</style><linearGradient id="a" x1="16.34" y1="29.87" x2="16.34" gradientUnits="userSpaceOnUse"><stop offset="0" stop-color="#ccc"/><stop offset="0" stop-color="#cdcdcd" stop-opacity="0.98"/><stop offset="0.05" stop-color="#d7d7d7" stop-opacity="0.78"/><stop offset="0.11" stop-color="#e1e1e1" stop-opacity="0.59"/><stop offset="0.16" stop-color="#e9e9e9" stop-opacity="0.43"/><stop offset="0.23" stop-color="#f0f0f0" stop-opacity="0.3"/><stop offset="0.3" stop-color="#f5f5f5" stop-opacity="0.19"/><stop offset="0.39" stop-color="#fafafa" stop-opacity="0.1"/><stop offset="0.49" stop-color="#fdfdfd" stop-opacity="0.04"/><stop offset="0.63" stop-color="#fff" stop-opacity="0.01"/><stop offset="1" stop-color="#fff" stop-opacity="0"/></linearGradient></defs><title>Kelloggs_Sprite</title><rect class="a" width="32.69" height="29.87"/><rect class="b" y="29.38" width="32.69" height="1.34"/><path class="c" d="M23.17,23.11H9.75a1.34,1.34,0,0,1-1.33-1.33V9.05A1.34,1.34,0,0,1,9.75,7.72H23.17A1.33,1.33,0,0,1,24.5,9.05V21.78A1.33,1.33,0,0,1,23.17,23.11Z"/><line class="c" x1="24.5" y1="11.26" x2="8.42" y2="11.26"/><line class="c" x1="12.17" y1="11.26" x2="12.17" y2="22.94"/><line class="c" x1="15.36" y1="11.26" x2="15.36" y2="22.94"/><line class="c" x1="18.55" y1="11.26" x2="18.55" y2="22.94"/><line class="c" x1="21.74" y1="11.26" x2="21.74" y2="22.94"/><line class="c" x1="8.42" y1="14.3" x2="24.5" y2="14.3"/><line class="c" x1="8.42" y1="17.1" x2="24.5" y2="17.1"/><line class="c" x1="8.42" y1="19.9" x2="24.5" y2="19.9"/></svg>