<svg xmlns="http://www.w3.org/2000/svg" width="24.66" height="22.88" viewBox="0 0 24.66 22.88"><defs><style>.a{fill:none;stroke:#5e5e5e;stroke-linecap:round;stroke-linejoin:round;stroke-width:0.75px;}</style></defs><title>Kelloggs_Sprite</title><path class="a" d="M24.28,10.56a12,12,0,0,1-23.9,0"/><path class="a" d="M16.4,8.56c4.6.22,7.88.83,7.88,1.54,0,.9-5.35,1.64-12,1.64S.38,11,.38,10.1,5.73,8.45,12.32,8.45"/><path class="a" d="M10.26,11.41,18.5,1.09A1.88,1.88,0,0,1,21.24.87a1.9,1.9,0,0,1,.6,1.37,1.89,1.89,0,0,1-.62,1.38L13,11.41"/><circle class="a" cx="7.52" cy="15.28" r="0.83"/><circle class="a" cx="11.09" cy="18.35" r="0.83"/><circle class="a" cx="17.33" cy="14.88" r="0.83"/><circle class="a" cx="16.05" cy="18.75" r="0.83"/></svg>