<svg xmlns="http://www.w3.org/2000/svg" width="20.47" height="19" viewBox="0 0 20.47 19"><defs><style>.a{fill:none;stroke:#5e5b5c;stroke-linecap:round;stroke-linejoin:round;stroke-width:0.6px;}</style></defs><title>Kelloggs_Sprite</title><path class="a" d="M20.17,8.76A9.94,9.94,0,1,1,.3,8.76"/><path class="a" d="M13.62,7.1c3.82.19,6.55.69,6.55,1.28,0,.75-4.45,1.37-9.94,1.37S.3,9.13.3,8.38,4.75,7,10.23,7"/><path class="a" d="M8.52,9.47,15.37.9A1.54,1.54,0,0,1,17.64.71a1.57,1.57,0,0,1,.5,1.14A1.55,1.55,0,0,1,17.63,3L10.81,9.47"/><circle class="a" cx="6.24" cy="12.69" r="0.69"/><circle class="a" cx="9.21" cy="15.24" r="0.69"/><circle class="a" cx="14.39" cy="12.35" r="0.69"/><circle class="a" cx="13.33" cy="15.58" r="0.69"/></svg>