<svg xmlns="http://www.w3.org/2000/svg" width="19.69" height="19.36" viewBox="0 0 19.69 19.36"><defs><style>.a{fill:#5e5b5c;}</style></defs><title>Kelloggs_Sprite</title><path class="a" d="M6.46,13.31c.81,1.15,1.62,2.17,2.16,2.83l.22.27H7.22a.33.33,0,0,0-.33.33.32.32,0,0,0,.33.32h5.25a.32.32,0,0,0,.33-.32.33.33,0,0,0-.33-.33H10.85l.22-.27c.54-.66,1.35-1.68,2.16-2.83A29.87,29.87,0,0,0,15.4,9.82a7.7,7.7,0,0,0,1-3.25,6.56,6.56,0,0,0-1.92-4.64.34.34,0,0,0-.56.14.34.34,0,0,0,.09.32,5.9,5.9,0,0,1,1.73,4.18,7,7,0,0,1-.94,2.95,26.58,26.58,0,0,1-2.12,3.41c-.8,1.13-1.6,2.14-2.13,2.79-.17.22-.33.41-.47.57a.33.33,0,0,1-.25.12.37.37,0,0,1-.25-.12l-.47-.57c-.53-.65-1.33-1.66-2.13-2.79A27.67,27.67,0,0,1,4.88,9.52a7,7,0,0,1-.94-2.95A5.93,5.93,0,0,1,7.55,1.12a6,6,0,0,1,4.59,0,.33.33,0,0,0,.33,0,.34.34,0,0,0,.13-.3.32.32,0,0,0-.2-.26A6.58,6.58,0,0,0,3.28,6.57a7.7,7.7,0,0,0,1,3.25A27.85,27.85,0,0,0,6.46,13.31Z"/><path class="a" d="M9.84,3.61a.33.33,0,0,0,0-.66,3.29,3.29,0,1,0,2.32,1,.3.3,0,0,0-.31-.09.33.33,0,0,0-.24.23.34.34,0,0,0,.09.32,2.62,2.62,0,1,1-1.86-.77Z"/><path class="a" d="M1,19.36H18.67a1,1,0,0,0,.88-.5,1,1,0,0,0,0-.95l-2-3.61a1,1,0,0,0-.9-.52H14.32a.33.33,0,0,0,0,.66h2.33a.36.36,0,0,1,.32.18l2,3.61a.27.27,0,0,1,0,.3.38.38,0,0,1-.32.18H1a.38.38,0,0,1-.32-.18.27.27,0,0,1,0-.3l2-3.61A.38.38,0,0,1,3,14.44H5.37a.33.33,0,1,0,0-.66H3a1,1,0,0,0-.89.52l-2,3.61a1,1,0,0,0,0,.95A1,1,0,0,0,1,19.36Z"/><path class="a" d="M16.08,15.42H14.77a.33.33,0,0,0-.19.06l-1,.66a.32.32,0,0,0,.36.54l.91-.6h1.21a.33.33,0,0,0,0-.66Z"/><path class="a" d="M14.11,17.72a.33.33,0,0,0,.33.33h2.62a.33.33,0,0,0,0-.66H14.44A.33.33,0,0,0,14.11,17.72Z"/><path class="a" d="M5.91,16.74a.33.33,0,0,0,.31-.24.32.32,0,0,0-.13-.36l-1-.66a.28.28,0,0,0-.18-.06H3.61a.33.33,0,0,0,0,.66H4.82l.91.6A.28.28,0,0,0,5.91,16.74Z"/><path class="a" d="M2.63,17.39a.33.33,0,1,0,0,.66H5.25a.33.33,0,0,0,0-.66Z"/></svg>