<svg xmlns="http://www.w3.org/2000/svg" width="45.59" height="37.93" viewBox="0 0 45.59 37.93"><title>Kelloggs_Sprite</title><rect x="32.44" y="35.27" width="0.73" height="2.65"/><rect x="31.48" y="36.23" width="2.65" height="0.73"/><rect x="6.53" width="0.73" height="2.65"/><rect x="5.57" y="0.96" width="2.65" height="0.73"/><path d="M44.3,21.16a1.49,1.49,0,0,1-1.3,1.3,1.48,1.48,0,0,1,1.3,1.29,1.48,1.48,0,0,1,1.29-1.29,1.48,1.48,0,0,1-1.29-1.3Z"/><path d="M43,1.1a1.49,1.49,0,0,1-1.3,1.3A1.49,1.49,0,0,1,43,3.7a1.49,1.49,0,0,1,1.3-1.3A1.49,1.49,0,0,1,43,1.1Z"/><path d="M7.42,35.58A.44.44,0,0,1,7,35.14a.43.43,0,0,1,.44-.44.44.44,0,0,1,.44.44A.44.44,0,0,1,7.42,35.58Zm0-.61a.18.18,0,0,0-.17.17.17.17,0,0,0,.17.16.16.16,0,0,0,.16-.16A.17.17,0,0,0,7.42,35Z"/><path d="M9.07,35.58a.44.44,0,0,1-.44-.44.44.44,0,0,1,.44-.44.43.43,0,0,1,.44.44A.44.44,0,0,1,9.07,35.58Zm0-.61a.17.17,0,0,0-.16.17.16.16,0,0,0,.16.16.17.17,0,0,0,.17-.16A.18.18,0,0,0,9.07,35Z"/><path d="M10.73,35.58a.44.44,0,0,1-.44-.44.44.44,0,1,1,.88,0A.44.44,0,0,1,10.73,35.58Zm0-.61a.18.18,0,0,0-.17.17.17.17,0,0,0,.17.16.16.16,0,0,0,.16-.16A.17.17,0,0,0,10.73,35Z"/><path d="M13.52,20.66a2,2,0,0,1-1-.43c-.25-.16-.51-.33-.65-.27a1.69,1.69,0,0,0-.4.26,2.65,2.65,0,0,1-.56.35,1.33,1.33,0,0,1-1.3-.28c-.25-.19-.53-.39-.7-.37a1.56,1.56,0,0,0-.5.29,3.88,3.88,0,0,1-.33.23,1.23,1.23,0,0,1-1.32,0,2.62,2.62,0,0,1-.32-.23,1.7,1.7,0,0,0-.51-.29,1.46,1.46,0,0,0-.71.31,1.38,1.38,0,0,1-1.29.34,2.65,2.65,0,0,1-.56-.35,1.69,1.69,0,0,0-.4-.26.71.71,0,0,0-.62.19,1.72,1.72,0,0,1-1.22.49,1.74,1.74,0,0,1-.81-.41L0,20l.36-.59.33.23a1.33,1.33,0,0,0,.5.29c.17,0,.45-.18.69-.36a1.35,1.35,0,0,1,1.31-.28,2.42,2.42,0,0,1,.56.35,2.7,2.7,0,0,0,.4.26c.14.06.41-.11.66-.28A1.79,1.79,0,0,1,6,19.24a1.94,1.94,0,0,1,.82.42,2.22,2.22,0,0,0,.27.19.57.57,0,0,0,.6,0l.27-.2a1.94,1.94,0,0,1,.82-.42,1.7,1.7,0,0,1,1.2.49c.26.19.49.26.63.2a1.74,1.74,0,0,0,.41-.26,2.58,2.58,0,0,1,.55-.35,1.39,1.39,0,0,1,1.3.33,1.27,1.27,0,0,0,.71.31,1.33,1.33,0,0,0,.5-.29l.32-.22a1.25,1.25,0,0,1,1.33,0l-.37.59a.55.55,0,0,0-.59,0l-.28.2a1.89,1.89,0,0,1-.82.42Z"/><path d="M11.94,31.15a.15.15,0,0,1-.15-.15V5.25a.15.15,0,0,1,.15-.15H17a.15.15,0,0,1,.15.15V31a.15.15,0,0,1-.15.15Zm.15-.3h4.79V5.4H12.09Z"/><path d="M38.08,9.57h-17a.32.32,0,0,1-.32-.32v-4a.32.32,0,0,1,.32-.32h17a.32.32,0,0,1,.32.32v4A.32.32,0,0,1,38.08,9.57Zm-17-.34h17l0-4-17,0Z"/><path d="M21.07,31.15a.15.15,0,0,1-.15-.15V13a.15.15,0,0,1,.15-.15h17a.15.15,0,0,1,.15.15V31a.15.15,0,0,1-.15.15Zm11.49-.3h5.37V25.16H32.56Zm-5.67,0h5.37V25.16H26.89Zm-5.67,0h5.37V25.16H21.22Zm11.34-6h5.37V19.17H32.56Zm-5.67,0h5.37V19.17H26.89Zm-5.67,0h5.37V19.17H21.22Zm11.34-6h5.37V13.18H32.56Zm-5.67,0h5.37V13.18H26.89Zm-5.67,0h5.37V13.18H21.22Z"/></svg>