<svg xmlns="http://www.w3.org/2000/svg" xmlns:xlink="http://www.w3.org/1999/xlink" width="44.6" height="40.95" viewBox="0 0 44.6 40.95"><defs><style>.a{fill:url(#a);}</style><linearGradient id="a" x1="27.06" y1="10.48" x2="42.13" y2="10.48" gradientUnits="userSpaceOnUse"><stop offset="1"/><stop offset="1" stop-color="#090203"/><stop offset="1" stop-color="#23080c"/><stop offset="1" stop-color="#4c111b"/><stop offset="1" stop-color="#861d2e"/><stop offset="1" stop-color="#cf2d48"/><stop offset="1" stop-color="#e1314e"/></linearGradient></defs><title>Kelloggs_Sprite</title><rect x="42.97" y="19.97" width="0.7" height="2.55"/><rect x="42.05" y="20.89" width="2.54" height="0.7"/><rect x="5" y="37.45" width="0.7" height="2.55"/><rect x="4.08" y="38.37" width="2.54" height="0.7"/><path d="M8.23,0A1.41,1.41,0,0,1,7,1.24,1.41,1.41,0,0,1,8.23,2.49,1.43,1.43,0,0,1,9.48,1.24,1.43,1.43,0,0,1,8.23,0Z"/><path d="M35.84,38.46a1.42,1.42,0,0,1-1.24,1.25A1.42,1.42,0,0,1,35.84,41a1.42,1.42,0,0,1,1.25-1.24,1.42,1.42,0,0,1-1.25-1.25Z"/><path d="M.42,26a.43.43,0,1,1,.42-.42A.42.42,0,0,1,.42,26Zm0-.58a.16.16,0,0,0-.15.16.15.15,0,0,0,.15.15.16.16,0,0,0,.16-.15A.16.16,0,0,0,.42,25.37Z"/><path d="M2,26a.43.43,0,1,1,.42-.42A.42.42,0,0,1,2,26Zm0-.58a.16.16,0,0,0-.16.16.16.16,0,0,0,.32,0A.16.16,0,0,0,2,25.37Z"/><path d="M3.6,26a.43.43,0,0,1,0-.85.43.43,0,0,1,0,.85Zm0-.58a.16.16,0,0,0-.16.16.16.16,0,0,0,.16.15.15.15,0,0,0,.15-.15A.16.16,0,0,0,3.6,25.37Z"/><path class="a" d="M40,11.16a1.9,1.9,0,0,1-1-.41c-.25-.16-.5-.32-.63-.26a2,2,0,0,0-.39.25,2.37,2.37,0,0,1-.53.33,1.27,1.27,0,0,1-1.25-.26c-.24-.18-.51-.38-.67-.35a1.25,1.25,0,0,0-.48.27,2.57,2.57,0,0,1-.32.22,1.17,1.17,0,0,1-1.27,0,2.32,2.32,0,0,1-.3-.22,1.35,1.35,0,0,0-.49-.27c-.18,0-.43.14-.67.29a1.35,1.35,0,0,1-1.25.32,2.37,2.37,0,0,1-.53-.33,1.7,1.7,0,0,0-.39-.25c-.14-.06-.35,0-.59.18a1.63,1.63,0,0,1-1.17.48,1.81,1.81,0,0,1-.78-.4,2.22,2.22,0,0,0-.27-.19l.35-.56a2.57,2.57,0,0,1,.32.22,1.25,1.25,0,0,0,.48.27c.16,0,.43-.17.66-.34a1.27,1.27,0,0,1,1.26-.27,2.37,2.37,0,0,1,.53.33,2,2,0,0,0,.39.25c.13.06.38-.1.63-.26a1.67,1.67,0,0,1,1.13-.4,1.87,1.87,0,0,1,.78.4l.27.19a.52.52,0,0,0,.56,0,2.22,2.22,0,0,0,.27-.19,1.87,1.87,0,0,1,.78-.4,1.63,1.63,0,0,1,1.15.47c.26.18.47.25.61.19a1.7,1.7,0,0,0,.39-.25,2.37,2.37,0,0,1,.53-.33,1.35,1.35,0,0,1,1.25.32c.24.16.49.32.67.29a1.35,1.35,0,0,0,.49-.27,2.32,2.32,0,0,1,.3-.22,1.17,1.17,0,0,1,1.27,0l-.34.56a.53.53,0,0,0-.57,0l-.27.19a1.87,1.87,0,0,1-.78.4Z"/><path d="M9.88,33.73a.16.16,0,0,1-.16-.15V8.13A.16.16,0,0,1,9.88,8H35.67a.16.16,0,0,1,.16.15V33.58a.16.16,0,0,1-.16.15Zm.15-.31H35.51V13H10Zm0-20.76H35.51V8.29H10Z"/><path d="M25.58,21.57a.16.16,0,0,1-.15-.16V16.73a.15.15,0,0,1,.15-.15h5a.15.15,0,0,1,.15.15v4.68a.16.16,0,0,1-.15.16Zm.16-.31h4.71V16.89H25.74Z"/><path d="M14.94,21.57a.16.16,0,0,1-.15-.16V16.73a.15.15,0,0,1,.15-.15h5a.16.16,0,0,1,.16.15v4.68a.16.16,0,0,1-.16.16Zm.16-.31h4.71V16.89H15.1Z"/><path d="M14.9,29.77a.16.16,0,0,1-.15-.16V24.93a.15.15,0,0,1,.15-.15h5a.16.16,0,0,1,.16.15v4.68a.16.16,0,0,1-.16.16Zm.16-.31h4.71V25.09H15.06Z"/><path d="M25.58,29.77a.16.16,0,0,1-.15-.16V24.93a.15.15,0,0,1,.15-.15h5a.15.15,0,0,1,.15.15v4.68a.16.16,0,0,1-.15.16Zm.16-.31h4.71V25.09H25.74Z"/></svg>