<svg xmlns="http://www.w3.org/2000/svg" width="45.41" height="36.92" viewBox="0 0 45.41 36.92"><title>Kelloggs_Sprite</title><rect x="36.58" y="1.21" width="0.68" height="2.48"/><rect x="35.68" y="2.11" width="2.48" height="0.68"/><rect x="0.9" y="23.84" width="0.68" height="2.48"/><rect y="24.74" width="2.48" height="0.68"/><path d="M9.92,0A1.37,1.37,0,0,1,8.71,1.21,1.38,1.38,0,0,1,9.92,2.42a1.4,1.4,0,0,1,1.21-1.21A1.39,1.39,0,0,1,9.92,0Z"/><path d="M35.71,34.09A1.38,1.38,0,0,1,34.5,35.3a1.39,1.39,0,0,1,1.21,1.21,1.4,1.4,0,0,1,1.21-1.21,1.39,1.39,0,0,1-1.21-1.21Z"/><path d="M5.79,36.92a.41.41,0,0,1-.41-.41.41.41,0,0,1,.82,0A.41.41,0,0,1,5.79,36.92Zm0-.56a.15.15,0,0,0-.15.15.15.15,0,0,0,.15.15.14.14,0,0,0,.15-.15A.15.15,0,0,0,5.79,36.36Z"/><path d="M7.34,36.92a.41.41,0,0,1-.41-.41.41.41,0,0,1,.41-.41.42.42,0,0,1,.41.41A.41.41,0,0,1,7.34,36.92Zm0-.56a.16.16,0,0,0-.16.15.15.15,0,0,0,.16.15.15.15,0,0,0,.15-.15A.15.15,0,0,0,7.34,36.36Z"/><path d="M8.88,36.92a.41.41,0,0,1-.41-.41.42.42,0,0,1,.41-.41.41.41,0,0,1,.41.41A.41.41,0,0,1,8.88,36.92Zm0-.56a.15.15,0,0,0-.15.15.15.15,0,0,0,.15.15A.14.14,0,0,0,9,36.51.15.15,0,0,0,8.88,36.36Z"/><path d="M43.37,22.76a1.84,1.84,0,0,1-1-.39c-.23-.15-.48-.31-.61-.26a1.85,1.85,0,0,0-.37.25,2.51,2.51,0,0,1-.52.32,1.22,1.22,0,0,1-1.21-.26c-.24-.17-.5-.36-.66-.34a1.22,1.22,0,0,0-.47.27l-.3.22a1.18,1.18,0,0,1-1.24,0,3.21,3.21,0,0,1-.3-.21,1.22,1.22,0,0,0-.47-.27,1.32,1.32,0,0,0-.66.29,1.3,1.3,0,0,1-1.21.31,2.27,2.27,0,0,1-.52-.32,1.66,1.66,0,0,0-.38-.25.7.7,0,0,0-.58.18,1.56,1.56,0,0,1-1.13.46,1.68,1.68,0,0,1-.76-.39c-.09-.06-.17-.13-.26-.18l.34-.55c.11.07.21.15.3.22a1.38,1.38,0,0,0,.47.27c.16,0,.42-.17.65-.34a1.25,1.25,0,0,1,1.22-.26,2.27,2.27,0,0,1,.52.32,1.9,1.9,0,0,0,.38.25c.13.05.37-.11.61-.26a1.68,1.68,0,0,1,1.1-.39,1.73,1.73,0,0,1,.77.4l.25.18a.52.52,0,0,0,.56,0l.25-.18a1.86,1.86,0,0,1,.76-.4,1.63,1.63,0,0,1,1.13.46.69.69,0,0,0,.59.19,1.9,1.9,0,0,0,.38-.25,2.43,2.43,0,0,1,.51-.32,1.31,1.31,0,0,1,1.22.31,1.29,1.29,0,0,0,.65.29,1.32,1.32,0,0,0,.48-.27,3.06,3.06,0,0,1,.29-.21,1.18,1.18,0,0,1,1.24,0l-.34.55a.5.5,0,0,0-.55,0l-.26.18a1.75,1.75,0,0,1-.76.4Z"/><path d="M16.2,25a1.31,1.31,0,1,1,1.3-1.3A1.31,1.31,0,0,1,16.2,25Zm0-2.1a.8.8,0,1,0,.79.8A.8.8,0,0,0,16.2,22.86Z"/><path d="M20.17,28.38a1.31,1.31,0,1,1,1.31-1.31A1.31,1.31,0,0,1,20.17,28.38Zm0-2.11a.79.79,0,0,0-.79.8.79.79,0,0,0,.79.79.79.79,0,0,0,.8-.79A.8.8,0,0,0,20.17,26.27Z"/><path d="M27.12,24.51a1.31,1.31,0,1,1,0-2.61,1.31,1.31,0,0,1,0,2.61Zm0-2.1a.79.79,0,0,0-.8.79.8.8,0,0,0,.8.8.79.79,0,0,0,.79-.8A.79.79,0,0,0,27.12,22.41Z"/><path d="M25.69,28.83A1.31,1.31,0,1,1,27,27.52,1.31,1.31,0,0,1,25.69,28.83Zm0-2.1a.79.79,0,0,0-.79.79.8.8,0,1,0,.79-.79Z"/><path d="M21.55,32A13.58,13.58,0,0,1,8,18.39v-.51c0-.78,2.85-2.09,13.56-2.09h.27l6.4-8.11a2.33,2.33,0,0,1,1.66-.88l.24,0a2.24,2.24,0,0,1,1.52.63,2.33,2.33,0,0,1,.75,1.71,2.3,2.3,0,0,1-.78,1.73L26.3,15.91l1.31.09c6.53.43,7.5,1.36,7.5,1.88a.47.47,0,0,1,0,.14l-.05.12v.13A13.45,13.45,0,0,1,21.55,32Zm-13-12.54a13,13,0,0,0,26,0l.07-.88-.83.29c-3,1-9.55,1.13-12.23,1.13s-9.25-.11-12.23-1.13l-.83-.29Zm17.09-2.89-3.08,2.93,1.5,0a45.57,45.57,0,0,0,9.41-1l.79-.33a.26.26,0,0,0,.16-.24.24.24,0,0,0-.17-.23l-.77-.3a41.75,41.75,0,0,0-7.56-1h-.09ZM30,7.3H29.9A1.81,1.81,0,0,0,28.62,8L19.5,19.43l2.22,0,.36-.25,9.19-8.73a1.82,1.82,0,0,0,.61-1.36A1.82,1.82,0,0,0,30.06,7.3H30Zm-9.84,9a49.37,49.37,0,0,0-10.52,1l-.77.33a.27.27,0,0,0-.17.25.3.3,0,0,0,.18.25l.75.28a45,45,0,0,0,9,1h.29l2.42-3.11Z"/></svg>