<svg xmlns="http://www.w3.org/2000/svg" width="41" height="38.2" viewBox="0 0 41 38.2"><defs><style>.a{fill:#fff;}</style></defs><title>Kelloggs_Sprite</title><rect class="a" x="31.12" y="2.12" width="0.69" height="2.49"/><rect class="a" x="30.22" y="3.02" width="2.49" height="0.69"/><rect class="a" x="0.9" y="18.96" width="0.69" height="2.49"/><rect class="a" y="19.87" width="2.49" height="0.69"/><path class="a" d="M7.85,0A1.39,1.39,0,0,1,6.64,1.22,1.38,1.38,0,0,1,7.85,2.43,1.39,1.39,0,0,1,9.07,1.22,1.4,1.4,0,0,1,7.85,0Z"/><path class="a" d="M29.79,34.64a1.39,1.39,0,0,1-1.21,1.22,1.38,1.38,0,0,1,1.21,1.22A1.39,1.39,0,0,1,31,35.86a1.4,1.4,0,0,1-1.22-1.22Z"/><path class="a" d="M9,38.2a.41.41,0,1,1,.41-.41A.41.41,0,0,1,9,38.2Zm0-.56a.15.15,0,0,0-.15.15.15.15,0,0,0,.15.15.14.14,0,0,0,.15-.15A.15.15,0,0,0,9,37.64Z"/><path class="a" d="M10.55,38.2a.41.41,0,1,1,.42-.41A.41.41,0,0,1,10.55,38.2Zm0-.56a.15.15,0,0,0-.15.15.15.15,0,0,0,.15.15.15.15,0,0,0,.16-.15A.16.16,0,0,0,10.55,37.64Z"/><path class="a" d="M12.11,38.2a.41.41,0,1,1,.41-.41A.41.41,0,0,1,12.11,38.2Zm0-.56a.16.16,0,0,0-.16.15.15.15,0,0,0,.16.15.15.15,0,0,0,.15-.15A.15.15,0,0,0,12.11,37.64Z"/><path class="a" d="M38.94,16.16a1.82,1.82,0,0,1-1-.4c-.24-.16-.49-.32-.62-.26a1.9,1.9,0,0,0-.38.25,2.27,2.27,0,0,1-.52.32,1.24,1.24,0,0,1-1.22-.26c-.24-.17-.49-.36-.66-.34a1.29,1.29,0,0,0-.47.27c-.09.07-.19.15-.3.22a1.2,1.2,0,0,1-1.25,0l-.3-.21a1.22,1.22,0,0,0-.47-.27,1.24,1.24,0,0,0-.66.29,1.31,1.31,0,0,1-1.22.31,2.27,2.27,0,0,1-.52-.32A1.55,1.55,0,0,0,29,15.5c-.13-.06-.35,0-.58.18a1.64,1.64,0,0,1-1.14.47,1.74,1.74,0,0,1-.76-.4l-.26-.18L26.6,15l.3.21a1.52,1.52,0,0,0,.47.28c.16,0,.42-.17.65-.34a1.27,1.27,0,0,1,1.23-.27,2.3,2.3,0,0,1,.52.33,1.82,1.82,0,0,0,.38.24c.13.06.38-.1.62-.25a1.63,1.63,0,0,1,1.1-.39,1.71,1.71,0,0,1,.77.39,2,2,0,0,0,.26.18.52.52,0,0,0,.55,0l.26-.19a1.71,1.71,0,0,1,.77-.39,1.64,1.64,0,0,1,1.13.45.67.67,0,0,0,.59.2,2.47,2.47,0,0,0,.38-.25,2.71,2.71,0,0,1,.52-.33,1.32,1.32,0,0,1,1.22.32,1.32,1.32,0,0,0,.66.29,1.26,1.26,0,0,0,.47-.28l.3-.21A1.18,1.18,0,0,1,41,15l-.35.55a.5.5,0,0,0-.55,0c-.09,0-.17.12-.26.18a1.73,1.73,0,0,1-.77.4Z"/><path class="a" d="M20,29.07H9.53A1.58,1.58,0,0,1,8,27.49V10.54A1.58,1.58,0,0,1,9.53,9H27.82a1.58,1.58,0,0,1,1.58,1.58v8.24a.25.25,0,0,1-.25.25.25.25,0,0,1-.25-.25V10.54a1.08,1.08,0,0,0-1.08-1.08H9.53a1.08,1.08,0,0,0-1.08,1.08v17a1.08,1.08,0,0,0,1.08,1.08H20a.25.25,0,0,1,.25.25A.25.25,0,0,1,20,29.07Z"/><path class="a" d="M28.91,13H8.2A.25.25,0,0,1,8,12.73a.25.25,0,0,1,.25-.25H28.91a.26.26,0,0,1,.25.25A.25.25,0,0,1,28.91,13Z"/><path class="a" d="M12.9,10.76a.25.25,0,0,1-.25-.25V8a.25.25,0,0,1,.5,0v2.56A.25.25,0,0,1,12.9,10.76Z"/><path class="a" d="M18.76,10.76a.25.25,0,0,1-.25-.25V8A.25.25,0,1,1,19,8v2.56A.25.25,0,0,1,18.76,10.76Z"/><path class="a" d="M24.47,10.76a.26.26,0,0,1-.25-.25V8a.25.25,0,0,1,.25-.25.25.25,0,0,1,.25.25v2.56A.25.25,0,0,1,24.47,10.76Z"/><path class="a" d="M18.12,24.49a.52.52,0,0,1-.27-.07l-2.26-1.24-2.34,1.25a.57.57,0,0,1-.59,0,.56.56,0,0,1-.23-.54l.44-2.69-1.87-2a.53.53,0,0,1-.13-.56.54.54,0,0,1,.44-.37l2.53-.39,1.21-2.48a.58.58,0,0,1,1,0l1.14,2.42,2.6.44a.55.55,0,0,1,.31.93l-1.85,1.9.42,2.76a.56.56,0,0,1-.23.54A.53.53,0,0,1,18.12,24.49ZM15.6,22.61,18.12,24h0l-.43-3.06,2-2.08h0l0-.09-2.86-.48L15.6,15.61h-.1l-1.32,2.71-2.79.43,0,.1L13.41,21l-.48,2.93L13,24Z"/><path class="a" d="M35.85,28.77a.25.25,0,0,1-.25-.25,7.67,7.67,0,0,0-15.34,0,.25.25,0,0,1-.25.25h0a.25.25,0,0,1-.25-.25,8.17,8.17,0,0,1,16.34,0,.25.25,0,0,1-.25.25Z"/><path class="a" d="M31.88,29.34a.25.25,0,0,1-.25-.25,3.7,3.7,0,0,0-7.39,0,.25.25,0,0,1-.25.25h0a.25.25,0,0,1-.25-.25,4.2,4.2,0,0,1,8.39,0,.25.25,0,0,1-.25.25Z"/><path class="a" d="M26.18,25.81a.26.26,0,0,1-.2-.1l-2.48-3.4a.25.25,0,0,1,.05-.35.25.25,0,0,1,.35.06l2.48,3.39a.25.25,0,0,1-.05.35A.3.3,0,0,1,26.18,25.81Z"/><path class="a" d="M29.78,25.86a.3.3,0,0,1-.15-.05.25.25,0,0,1-.06-.35L32,21.91a.25.25,0,0,1,.35-.06.24.24,0,0,1,.07.34L30,25.75A.26.26,0,0,1,29.78,25.86Z"/><path class="a" d="M27.93,29.7a1.19,1.19,0,1,1,1.19-1.18A1.18,1.18,0,0,1,27.93,29.7Zm0-1.87a.69.69,0,1,0,.69.69A.69.69,0,0,0,27.93,27.83Z"/><path class="a" d="M28.79,28.41a.28.28,0,0,1-.23-.15.26.26,0,0,1,.13-.33l4.69-2.06a.24.24,0,0,1,.33.13.25.25,0,0,1-.12.33l-4.7,2.05A.17.17,0,0,1,28.79,28.41Z"/></svg>