<svg xmlns="http://www.w3.org/2000/svg" width="12" height="12" viewBox="0 0 12 12"><defs><style>.a{fill:#f9f8f7;}</style></defs><title>Kelloggs_Sprite</title><path class="a" d="M6,0a6,6,0,1,0,6,6A6,6,0,0,0,6,0ZM6,11.2A5.2,5.2,0,1,1,11.2,6,5.19,5.19,0,0,1,6,11.2Z"/><path class="a" d="M9.74,5.67l-.2-.11H6.44v-3l0-.16-.07-.09,0,0A.46.46,0,0,0,6,2.13a.41.41,0,0,0-.41.41v3h-3A.44.44,0,0,0,2.13,6a.41.41,0,0,0,.13.3l.2.11H5.55v3l.06.21.06.06A.46.46,0,0,0,6,9.87a.41.41,0,0,0,.41-.41v-3h3l.16,0,.09-.07,0,0A.46.46,0,0,0,9.87,6,.41.41,0,0,0,9.74,5.67Z"/></svg>