<svg xmlns="http://www.w3.org/2000/svg" width="14.29" height="13.21" viewBox="0 0 14.29 13.21"><defs><style>.a{fill:none;stroke:#f9f8f7;stroke-linecap:round;stroke-linejoin:round;}</style></defs><title>Kelloggs_Sprite</title><line class="a" x1="12.15" y1="0.5" x2="12.15" y2="3.77"/><line class="a" x1="10.52" y1="2.14" x2="13.79" y2="2.14"/><path class="a" d="M7.4,3.8a1.93,1.93,0,0,1-1.89,2,1.93,1.93,0,0,1-1.9-2V2.67a1.93,1.93,0,0,1,1.9-2,1.93,1.93,0,0,1,1.89,2Z"/><path class="a" d="M5.51,7.66h0A5,5,0,0,0,.51,12a.63.63,0,0,0,.63.72H9.88a.64.64,0,0,0,.63-.72A5,5,0,0,0,5.51,7.66Z"/></svg>