<svg xmlns="http://www.w3.org/2000/svg" width="15" height="15" viewBox="0 0 15 15"><defs><style>.a{fill:#bc0f34;}.b{fill:#f9f8f7;}</style></defs><title>Kelloggs_Sprite</title><path class="a" d="M7.5,0A7.5,7.5,0,1,0,15,7.5,7.5,7.5,0,0,0,7.5,0Z"/><path class="b" d="M10.52,3.9,10.23,4,7.5,6.71,4.82,4l-.18-.12-.13,0h0a.57.57,0,0,0-.42.2.53.53,0,0,0,0,.74L6.71,7.5,4.05,10.16a.54.54,0,0,0,0,.78.5.5,0,0,0,.38.15L4.76,11,7.5,8.29,10.18,11l.24.14h.11a.55.55,0,0,0,.41-.2.51.51,0,0,0,0-.74L8.28,7.5,11,4.82l.12-.18,0-.13v0a.57.57,0,0,0-.2-.42A.56.56,0,0,0,10.52,3.9Z"/></svg>