<svg xmlns="http://www.w3.org/2000/svg" width="22.27" height="22.31" viewBox="0 0 22.27 22.31"><defs><style>.a{fill:#a5a5a5;}</style></defs><title>Kelloggs_Sprite</title><path class="a" d="M21.76,22.31H.51A.51.51,0,0,1,0,21.8V.51a.52.52,0,0,1,1,0V21.28H21.76a.52.52,0,0,1,0,1Z"/><path class="a" d="M4.27,13.64a.53.53,0,0,1-.33-.13.51.51,0,0,1-.06-.72L8.26,7.67a.52.52,0,0,1,.63-.12l4.57,2.36,6.37-8a.52.52,0,0,1,.73-.08.51.51,0,0,1,.08.72L14,10.88a.51.51,0,0,1-.64.14L8.78,8.65,4.66,13.46A.53.53,0,0,1,4.27,13.64Z"/><path class="a" d="M20.82,7.19a.53.53,0,0,1-.52-.47l-.37-4.2-4,.91A.51.51,0,0,1,15.27,3a.51.51,0,0,1,.39-.61l4.61-1.05a.52.52,0,0,1,.42.09.49.49,0,0,1,.21.37l.43,4.78a.5.5,0,0,1-.47.56Z"/><path class="a" d="M7.32,22.31H4.27a.51.51,0,0,1-.51-.51V16.52A.51.51,0,0,1,4.27,16H7.32a.51.51,0,0,1,.51.52V21.8A.51.51,0,0,1,7.32,22.31Zm-2.53-1h2V17h-2Z"/><polyline class="a" points="11.49 21.53 11.49 14.13 14.54 14.13 14.54 21.53"/><path class="a" d="M14.54,22a.51.51,0,0,1-.52-.51V14.64H12v6.89a.52.52,0,0,1-1,0v-7.4a.51.51,0,0,1,.51-.52h3a.51.51,0,0,1,.51.52v7.4A.51.51,0,0,1,14.54,22Z"/><path class="a" d="M21.76,22.31a.51.51,0,0,1-.52-.51V12.74h-2v8.67a.52.52,0,1,1-1,0V12.22a.51.51,0,0,1,.52-.51h3a.51.51,0,0,1,.51.51V21.8A.51.51,0,0,1,21.76,22.31Z"/></svg>