<svg xmlns="http://www.w3.org/2000/svg" width="27.01" height="22.65" viewBox="0 0 27.01 22.65"><defs><style>.a{fill:#5e5b5c;stroke:#5e5b5c;stroke-miterlimit:10;stroke-width:0.2px;}</style></defs><title>Kelloggs_Sprite</title><path class="a" d="M13.36,22.55h0c-.25,0-6.11-.1-6.22-3-.09-2.28.88-8.93,6.36-9.68h.24c.69,0,4.21.57,5.94,5.78.78,2.35.78,4,0,5.09-1,1.44-3.27,1.75-6.33,1.78Zm.3-12.32h-.12c-5.23.72-6.15,7.14-6.07,9.33.1,2.54,5.76,2.65,5.89,2.65,2.56,0,5.06-.24,6.06-1.64.7-1,.68-2.55-.06-4.79-1.66-5-5-5.51-5.64-5.55Z"/><path class="a" d="M20.81,20.7s-.5,0-1.16-.08l-.25,0,.12-.22c.57-1,.51-2.49-.18-4.59A9.82,9.82,0,0,0,17.17,12l-.1-.1.08-.11a5.51,5.51,0,0,1,3.77-2.27h.23c.6.05,3.72.5,5.24,5.11.69,2.07.69,3.54,0,4.5C25.49,20.39,23.51,20.67,20.81,20.7Zm-.88-.39c.52.05.87.05.88.05,2.24,0,4.44-.21,5.32-1.44.61-.86.6-2.23-.05-4.2-1.46-4.4-4.39-4.83-5-4.87H21a5.15,5.15,0,0,0-3.46,2,10.22,10.22,0,0,1,2.15,3.81C20.33,17.72,20.42,19.24,19.93,20.31Z"/><path class="a" d="M13.93,8.55A3.35,3.35,0,0,1,10.59,5.2.16.16,0,0,1,10.76,5a.16.16,0,0,1,.16.16,3,3,0,0,0,6,0,3.2,3.2,0,0,0-.09-.75.16.16,0,1,1,.32-.08,3.33,3.33,0,0,1-3.24,4.18Z"/><path class="a" d="M6.21,20.7c-2.71,0-4.69-.31-5.6-1.58-.68-1-.68-2.43,0-4.5C2.14,10,5.26,9.56,5.86,9.51h.23a5.53,5.53,0,0,1,3.77,2.27.16.16,0,0,1,0,.23.16.16,0,0,1-.23,0A5.23,5.23,0,0,0,6,9.85H5.89c-.57,0-3.5.47-5,4.87-.65,2-.66,3.34-.05,4.2.87,1.23,3.08,1.42,5.33,1.44a9.93,9.93,0,0,0,1.11-.08.17.17,0,0,1,0,.34C6.7,20.69,6.23,20.7,6.21,20.7Z"/><path class="a" d="M6.08,8.55A3.35,3.35,0,1,1,9.42,5.2,3.35,3.35,0,0,1,6.08,8.55Zm0-6.36a3,3,0,1,0,3,3A3,3,0,0,0,6.08,2.19Z"/><path class="a" d="M21.05,8.55A3.35,3.35,0,1,1,24.4,5.2,3.35,3.35,0,0,1,21.05,8.55Zm0-6.36a3,3,0,1,0,3,3A3,3,0,0,0,21.05,2.19Z"/><path class="a" d="M11,5.22a.5.5,0,0,1-.17,0c-.32-.08-.4-.46-.46-.74l0-.1a.84.84,0,0,1,.21-.81.76.76,0,0,1,0-.15,1.15,1.15,0,0,1,.86-1.12,1.14,1.14,0,0,1,.3-.56.67.67,0,0,1,0-.24.82.82,0,0,1,.82-.82.84.84,0,0,1,.34.08,1.37,1.37,0,0,1,.37-.17.5.5,0,0,1,.31-.31A1.55,1.55,0,0,1,15.1.38a1.32,1.32,0,0,1,.48.82,1.13,1.13,0,0,1,.45.47A1.16,1.16,0,0,1,17,2.81a.45.45,0,0,1,0,.11,1,1,0,0,1,.43.34.91.91,0,0,1,.12.7A.88.88,0,0,1,15.8,4a1.15,1.15,0,0,1-1-.62,1.11,1.11,0,0,1-.36-.13,1.42,1.42,0,0,1-1.18.22,1.19,1.19,0,0,1-.42.21,1.18,1.18,0,0,1-.84.88A1.27,1.27,0,0,1,11,5.22ZM12.46,1a.49.49,0,0,0-.49.49.54.54,0,0,0,0,.21l.06.12-.1.08a.83.83,0,0,0-.29.55v.12l-.13,0a.83.83,0,0,0-.7.82.88.88,0,0,0,0,.17l0,.1-.08.06a.56.56,0,0,0-.17.56l0,.1c0,.17.11.46.22.49.31.08.73-.29.82-.55l0-.09.1,0a.84.84,0,0,0,.68-.72V3.37l.13,0a.81.81,0,0,0,.43-.22l.07-.06.1,0a1.32,1.32,0,0,0,.33,0,1.09,1.09,0,0,0,.72-.27l.1-.08.11.08a.78.78,0,0,0,.4.15H15l0,.09a.85.85,0,0,0,.77.51h.07l.18,0,0,.17a.53.53,0,0,0,.22.41.54.54,0,0,0,.46.1.54.54,0,0,0,.34-.84.57.57,0,0,0-.37-.25l-.17,0,0-.17a.65.65,0,0,0,0-.19A.83.83,0,0,0,15.9,2h-.09l0-.09a.82.82,0,0,0-.43-.43l-.11-.05,0-.12a.86.86,0,0,0-.36-.63A1.23,1.23,0,0,0,13.6.57s-.12.07-.12.13V.84l-.13,0a1.13,1.13,0,0,0-.45.2l-.09.06-.09-.06A.5.5,0,0,0,12.46,1Z"/></svg>