<svg xmlns="http://www.w3.org/2000/svg" width="12.07" height="12" viewBox="0 0 12.07 12"><defs><style>.a{fill:#bc0f34;}</style></defs><title>Kelloggs_Sprite</title><path class="a" d="M11.57,0H7a.51.51,0,0,0-.47.31.51.51,0,0,0,.11.54L8.58,2.77,6.4,4.93a.51.51,0,0,0,0,.71.52.52,0,0,0,.36.14.5.5,0,0,0,.35-.14L9.64,3.12a.47.47,0,0,0,.15-.35.49.49,0,0,0-.15-.36L8.22,1h2.85V3.83L11,3.71a.5.5,0,0,0-.85.35.52.52,0,0,0,.14.36l1,1A.5.5,0,0,0,12.07,5V.5A.5.5,0,0,0,11.57,0ZM7,5.48Z"/><path class="a" d="M5,6.36,2.43,8.88a.49.49,0,0,0-.15.35.49.49,0,0,0,.15.36L3.85,11H1V8.17l.12.12a.51.51,0,0,0,.71,0,.5.5,0,0,0,0-.71l-1-1a.51.51,0,0,0-.55-.1A.48.48,0,0,0,0,7V11.5a.5.5,0,0,0,.5.5H5.06a.49.49,0,0,0,.46-.31.48.48,0,0,0-.11-.54L3.49,9.23,5.67,7.07A.5.5,0,0,0,5,6.36Z"/></svg>