<svg xmlns="http://www.w3.org/2000/svg" width="36.13" height="14.5" viewBox="0 0 36.13 14.5"><defs><style>.a,.b,.c,.d{fill:none;stroke-linecap:round;stroke-linejoin:round;}.a,.c,.d{stroke:#163567;}.a{stroke-width:0.4px;}.b{stroke:#5e5e5e;stroke-width:0.75px;}.c{stroke-width:0.49px;}.d{stroke-width:0.61px;}</style></defs><title>Kelloggs_Sprite</title><path class="a" d="M6.13,7.37A1.59,1.59,0,0,1,4.4,9,1.63,1.63,0,0,1,3,7.29V6.82A1.65,1.65,0,0,1,4.4,5.15,1.59,1.59,0,0,1,6.13,6.74Z"/><path class="a" d="M5.38,10.42l-.53.64a.4.4,0,0,1-.61,0l-.53-.64a.79.79,0,0,0-.91-.22A4.36,4.36,0,0,0,.2,13.76a.4.4,0,0,0,.4.44H8.49a.4.4,0,0,0,.4-.44,4.36,4.36,0,0,0-2.6-3.56A.79.79,0,0,0,5.38,10.42Z"/><path class="b" d="M6.13,7.37A1.59,1.59,0,0,1,4.4,9,1.63,1.63,0,0,1,3,7.29V6.82A1.65,1.65,0,0,1,4.4,5.15,1.59,1.59,0,0,1,6.13,6.74Z"/><path class="b" d="M5.38,10.42l-.53.64a.4.4,0,0,1-.61,0l-.53-.64a.79.79,0,0,0-.91-.22A4.36,4.36,0,0,0,.2,13.76a.4.4,0,0,0,.4.44H8.49a.4.4,0,0,0,.4-.44,4.36,4.36,0,0,0-2.6-3.56A.79.79,0,0,0,5.38,10.42Z"/><path class="c" d="M17.61,5.81a2,2,0,0,1-2.12,2,2,2,0,0,1-1.78-2V5.13a2,2,0,0,1,1.78-2A2,2,0,0,1,17.61,5Z"/><path class="c" d="M16.69,9.56l-.66.78a.48.48,0,0,1-.74,0l-.66-.78a1,1,0,0,0-1.11-.28,5.35,5.35,0,0,0-3.19,4.38.48.48,0,0,0,.48.54h9.7a.49.49,0,0,0,.49-.54,5.38,5.38,0,0,0-3.2-4.38A1,1,0,0,0,16.69,9.56Z"/><path class="b" d="M17.61,5.81a2,2,0,0,1-2.12,2,2,2,0,0,1-1.78-2V5.13a2,2,0,0,1,1.78-2A2,2,0,0,1,17.61,5Z"/><path class="b" d="M16.69,9.56l-.66.78a.48.48,0,0,1-.74,0l-.66-.78a1,1,0,0,0-1.11-.28,5.35,5.35,0,0,0-3.19,4.38.48.48,0,0,0,.48.54h9.7a.49.49,0,0,0,.49-.54,5.38,5.38,0,0,0-3.2-4.38A1,1,0,0,0,16.69,9.56Z"/><path class="d" d="M31.6,3.72a2.45,2.45,0,0,1-2.66,2.43,2.53,2.53,0,0,1-2.22-2.56V2.87A2.53,2.53,0,0,1,28.94.31,2.45,2.45,0,0,1,31.6,2.74Z"/><path class="d" d="M30.44,8.4l-.82,1a.61.61,0,0,1-.93,0l-.81-1a1.22,1.22,0,0,0-1.4-.35,6.72,6.72,0,0,0-4,5.47.61.61,0,0,0,.61.68H35.22a.62.62,0,0,0,.61-.68,6.71,6.71,0,0,0-4-5.47A1.21,1.21,0,0,0,30.44,8.4Z"/><path class="b" d="M31.6,3.72a2.45,2.45,0,0,1-2.66,2.43,2.53,2.53,0,0,1-2.22-2.56V2.87A2.53,2.53,0,0,1,28.94.31,2.45,2.45,0,0,1,31.6,2.74Z"/><path class="b" d="M30.44,8.4l-.82,1a.61.61,0,0,1-.93,0l-.81-1a1.22,1.22,0,0,0-1.4-.35,6.72,6.72,0,0,0-4,5.47.61.61,0,0,0,.61.68H35.22a.62.62,0,0,0,.61-.68,6.71,6.71,0,0,0-4-5.47A1.21,1.21,0,0,0,30.44,8.4Z"/></svg>