<svg xmlns="http://www.w3.org/2000/svg" width="17.15" height="20" viewBox="0 0 17.15 20"><defs><style>.a,.b{fill:#777;}.a{fill-rule:evenodd;}</style></defs><title>Kelloggs_Sprite</title><path class="a" d="M0,17.05V0H12.93V8.88l-.11,0-.4-.1h-.07V.58H.58V16.47H6.19l0,0a3.45,3.45,0,0,0,.25.41l.1.13Z"/><path class="a" d="M.08.08V17H6.4a2.19,2.19,0,0,1-.26-.41H.49V.49h12V8.67l.41.1V.08Z"/><polygon class="a" points="3.12 10.42 3.12 9.84 7.85 9.84 7.38 10.42 3.12 10.42"/><path class="a" d="M3.2,9.93v.41H7.45l.33-.41Z"/><path class="b" d="M8.52,8V7.88a2.22,2.22,0,0,0-2-2.34A2.22,2.22,0,0,0,4.41,7.88V8H4V7.88A2.83,2.83,0,0,1,5.57,5.24a1.54,1.54,0,1,1,1.79,0A2.83,2.83,0,0,1,9,7.88V8Zm-2-5A1.06,1.06,0,0,0,5.4,4,1.07,1.07,0,1,0,7.53,4,1.06,1.06,0,0,0,6.47,2.93Z"/><path class="b" d="M6.47,2.55a1.45,1.45,0,0,1,.71,2.71A2.74,2.74,0,0,1,8.9,7.88H8.6A2.3,2.3,0,0,0,6.47,5.45,2.3,2.3,0,0,0,4.33,7.88H4A2.74,2.74,0,0,1,5.75,5.26a1.45,1.45,0,0,1,.72-2.71Zm0,.3A1.15,1.15,0,1,0,7.62,4,1.14,1.14,0,0,0,6.47,2.85Z"/><path class="b" d="M11.8,20a5.33,5.33,0,1,1,3.79-1.56A5.3,5.3,0,0,1,11.8,20Zm0-10.11a4.76,4.76,0,1,0,3.37,1.39A4.73,4.73,0,0,0,11.8,9.89Z"/><path class="b" d="M11.8,19.92a5.27,5.27,0,0,1-3.72-9h0a5.27,5.27,0,1,1,3.72,9Zm0-10.11a4.82,4.82,0,0,0-3.43,1.42h0A4.85,4.85,0,1,0,11.8,9.81Z"/><path class="b" d="M12,11.72a.78.78,0,1,1-.78.77A.78.78,0,0,1,12,11.72Z"/><path class="b" d="M13.11,16.94a.78.78,0,0,1-.11.18,1.39,1.39,0,0,1-1,.46,3.51,3.51,0,0,1-.56,0,.82.82,0,0,1-.65-.83l.13-.84c.08-.48.17-1,.25-1.45,0,0,0-.06,0-.1,0-.2-.06-.27-.26-.29l-.26,0a.18.18,0,0,1-.14-.19.18.18,0,0,1,.17-.16h1.66a.25.25,0,0,1,.28.27,2.3,2.3,0,0,1,0,.45L12.25,16c0,.18-.07.36-.09.54a.8.8,0,0,0,0,.27.2.2,0,0,0,.23.17,1,1,0,0,0,.29-.08,1.43,1.43,0,0,1,.21-.11C13,16.75,13.14,16.82,13.11,16.94Z"/></svg>