<svg xmlns="http://www.w3.org/2000/svg" width="25.3" height="25.85" viewBox="0 0 25.3 25.85"><defs><style>.a{fill:#5e5b5c;}</style></defs><title>Kelloggs_Sprite</title><path class="a" d="M9,15.77a.23.23,0,0,0-.33,0,.47.47,0,0,1-.36.18A.45.45,0,0,1,8,15.8a.23.23,0,0,0-.33,0,.24.24,0,0,0,0,.33.94.94,0,0,0,.73.36.92.92,0,0,0,.72-.36A.23.23,0,0,0,9,15.77Z"/><path class="a" d="M7.27,14.36A.24.24,0,0,0,7,14.6v.27a.24.24,0,0,0,.24.24.23.23,0,0,0,.23-.24V14.6A.23.23,0,0,0,7.27,14.36Z"/><path class="a" d="M9.43,14.36a.24.24,0,0,0-.24.24v.27a.24.24,0,0,0,.48,0V14.6A.24.24,0,0,0,9.43,14.36Z"/><path class="a" d="M16.88,17.12a.24.24,0,0,0-.33,0,.47.47,0,0,1-.36.19.48.48,0,0,1-.36-.19.24.24,0,0,0-.33,0,.23.23,0,0,0,0,.33.92.92,0,0,0,.72.36.94.94,0,0,0,.73-.36A.24.24,0,0,0,16.88,17.12Z"/><path class="a" d="M15.11,15.71a.24.24,0,0,0-.24.24v.27a.24.24,0,0,0,.48,0V16A.24.24,0,0,0,15.11,15.71Z"/><path class="a" d="M17.27,15.71A.23.23,0,0,0,17,16v.27a.23.23,0,0,0,.23.24.24.24,0,0,0,.24-.24V16A.24.24,0,0,0,17.27,15.71Z"/><path class="a" d="M19.56,20.39l-1.86-.74h0a5,5,0,0,0,1.92-.8.25.25,0,0,0,.08-.22,31.13,31.13,0,0,1-.27-3.75,3.21,3.21,0,1,0-6.42,0c0,.48,0,1.08-.06,1.64l-.52.26L10.89,16h0a2.43,2.43,0,0,0,.14-.66.77.77,0,0,0,.55-.74.78.78,0,0,0-.27-.59V12.43a1.31,1.31,0,0,0-.58-1.08,1,1,0,0,0-1-.77H7.54a2.13,2.13,0,0,0-2.13,2.13V14a.75.75,0,0,0-.27.59.77.77,0,0,0,.55.74,2.6,2.6,0,0,0,1.07,1.94v.66l-2,.59a1,1,0,0,0-.75,1v2.64a.24.24,0,0,0,.24.24h0v2.74a.23.23,0,0,0,.23.23.23.23,0,0,0,.24-.23V22.41h.88v2.74a.23.23,0,0,0,.23.23.23.23,0,0,0,.24-.23V21.06A1,1,0,0,0,6,20.48l-.4-.6a.24.24,0,0,0-.33-.07.23.23,0,0,0-.06.33l.4.61a.57.57,0,0,1,.1.31v.87H4.53v-2.4A.56.56,0,0,1,4.94,19l.81-.25a2.68,2.68,0,0,0,2.6,2.05,2.73,2.73,0,0,0,1.26-.31.79.79,0,0,0,.63.31h0v0a2.11,2.11,0,0,0,1.08,1.85v.39s0,0,0,0l-.88.29a1.06,1.06,0,0,0-.72,1v.77a.24.24,0,0,0,.48,0v-.77a.58.58,0,0,1,.39-.55l.26-.08a1.87,1.87,0,0,0,3.09,0l.26.08a.58.58,0,0,1,.39.55v.77a.24.24,0,0,0,.48,0v-.77a1.06,1.06,0,0,0-.72-1l-.88-.29s0,0,0,0v-.39a2.13,2.13,0,0,0,1-1.28,2.38,2.38,0,0,0,1.73.75,2.41,2.41,0,0,0,2.29-1.67l.9.36a.58.58,0,0,1,.36.54v1.1h-.88v-.3a.24.24,0,1,0-.47,0v3a.23.23,0,0,0,.24.23.23.23,0,0,0,.23-.23V23h.61v2.2a.23.23,0,0,0,.24.23.23.23,0,0,0,.23-.23V23h0a.24.24,0,0,0,.23-.24V21.37A1,1,0,0,0,19.56,20.39Zm-6.11-5.52a2.74,2.74,0,0,1,5.48,0,31.68,31.68,0,0,0,.25,3.67,4.92,4.92,0,0,1-1.67.65v-.38a2.25,2.25,0,0,0,.36-.24,2.76,2.76,0,0,0,.93-1.49,2.88,2.88,0,0,0,.06-.59c0-1.34-1-1.53-1.9-1.71a3.71,3.71,0,0,1-1.7-.64.28.28,0,0,0-.25,0,.24.24,0,0,0-.14.22s0,.63-.9.85a.24.24,0,0,0-.17.29.24.24,0,0,0,.29.17,1.58,1.58,0,0,0,1.17-.92,5,5,0,0,0,1.61.52c1,.2,1.52.34,1.52,1.25a2,2,0,0,1-.06.49,2.2,2.2,0,0,1-2.14,1.71,2.19,2.19,0,0,1-1.28-.41,2.55,2.55,0,0,0-.65-1V16.22a.23.23,0,0,0-.11-.2.23.23,0,0,0-.23,0l-.51.25C13.44,15.77,13.45,15.3,13.45,14.87Zm.34,1.73v.86L12.93,17ZM11,16.6l.86.43-.86.43ZM9.73,19.2v.22a.78.78,0,0,0-.27.59,2.15,2.15,0,0,1-1.11.3A2.22,2.22,0,0,1,6.2,18.6l.59-.18a1.59,1.59,0,0,0,3,.43A2,2,0,0,0,9.73,19.2Zm-2.5-1.09v-.54a2.78,2.78,0,0,0,1.12.24,2.73,2.73,0,0,0,1.11-.24v.54a1.12,1.12,0,0,1-2.23,0Zm1.12-.77a2.21,2.21,0,0,1-2.2-2.2.24.24,0,0,0-.24-.24.3.3,0,0,1-.3-.3.31.31,0,0,1,.3-.31h.55a.22.22,0,0,0,.22-.16l.22-.65a9.06,9.06,0,0,0,3.18-.56.24.24,0,0,0,.1-.32.23.23,0,0,0-.31-.11A9.38,9.38,0,0,1,6.73,13a.23.23,0,0,0-.23.16l-.22.65h-.4V12.71a1.66,1.66,0,0,1,1.66-1.66H9.7a.58.58,0,0,1,.57.48.23.23,0,0,0,.11.17.84.84,0,0,1,.44.73v1.39h-.31a.23.23,0,0,0-.23.24.23.23,0,0,0,.23.23h.27a.31.31,0,0,1,.31.31.3.3,0,0,1-.31.3.23.23,0,0,0-.23.24A2.21,2.21,0,0,1,8.35,17.34Zm1.59.77v-.83a2.61,2.61,0,0,0,.61-.63v.63a2.48,2.48,0,0,0-.61.9Zm3.54,5.48a1.39,1.39,0,0,1-2.15,0l.15-.05a.5.5,0,0,0,.35-.48v-.19a2.11,2.11,0,0,0,1.15,0v.19a.5.5,0,0,0,.35.48Zm.82-3.28a.24.24,0,0,0-.24.24v.23h0v0a1.66,1.66,0,0,1-3.31,0v-.27a.24.24,0,0,0-.24-.24h-.27a.3.3,0,0,1-.3-.3.28.28,0,0,1,.15-.26l.06-.05a9.07,9.07,0,0,0,3.72-.84.24.24,0,0,0-.23-.41,8.5,8.5,0,0,1-3.43.77v0A2.22,2.22,0,0,1,10.58,18a.18.18,0,0,0,.08.07.19.19,0,0,0,.12,0l.11,0,1.51-.76,1.52.76.11,0a.19.19,0,0,0,.12,0,.18.18,0,0,0,.08-.07,2.22,2.22,0,0,1,.37,1.23v.34a.26.26,0,0,0,.12.21.28.28,0,0,1,.15.26.3.3,0,0,1-.3.3Zm1.89,1.35a1.94,1.94,0,0,1-1.62-.88.77.77,0,0,0,.51-1.36V19.2a2.83,2.83,0,0,0,0-.29,2.56,2.56,0,0,0,1.13.25A2.7,2.7,0,0,0,17,19v.35a.77.77,0,0,0,.49.72l.51.21A1.93,1.93,0,0,1,16.19,21.66Z"/><path class="a" d="M13.09,21.18a.23.23,0,0,0-.33,0,.44.44,0,0,1-.36.18.44.44,0,0,1-.35-.18.24.24,0,0,0-.37.3.91.91,0,0,0,1.45,0A.23.23,0,0,0,13.09,21.18Z"/><circle class="a" cx="11.6" cy="20.28" r="0.24"/><circle class="a" cx="13.21" cy="20.28" r="0.24"/><path class="a" d="M1.5,25.85V11.16l-1,.93a.28.28,0,0,1-.2.08.32.32,0,0,1-.22-.1A.32.32,0,0,1,0,11.86a.28.28,0,0,1,.1-.21l2-1.86V25.25H23.2V9.79l2,1.86a.3.3,0,0,1,0,.42.29.29,0,0,1-.22.1.32.32,0,0,1-.2-.08l-1-.93V25.85Z"/><path class="a" d="M20.79,8.15a.31.31,0,0,1-.3-.3V2.79H18.38v2.5a.31.31,0,0,1-.3.3.3.3,0,0,1-.3-.3V2.19h3.31V7.85A.3.3,0,0,1,20.79,8.15Z"/><path class="a" d="M1.8,10.77a.31.31,0,0,1-.22-.09.35.35,0,0,1-.08-.22.3.3,0,0,1,.1-.21L12.65,0,23.71,10.25a.29.29,0,0,1,.09.21.27.27,0,0,1-.08.22.28.28,0,0,1-.22.09.27.27,0,0,1-.2-.08L12.65.82,2,10.69A.28.28,0,0,1,1.8,10.77Z"/></svg>