<svg xmlns="http://www.w3.org/2000/svg" width="24.08" height="15.27" viewBox="0 0 24.08 15.27"><defs><style>.a{fill:#5e5b5c;}</style></defs><title>Kelloggs_Sprite</title><path class="a" d="M12.15,0,12,0l-.11,0L.2,4.48a.31.31,0,0,0-.2.28.32.32,0,0,0,.19.3h0l11.73,5a.33.33,0,0,0,.24,0l11.73-5a.32.32,0,0,0,.19-.3.31.31,0,0,0-.2-.28Zm10,5.11-10,4.26a.34.34,0,0,1-.28,0l-10-4.26a.36.36,0,0,1-.22-.33A.37.37,0,0,1,2,4.48l10-3.79a.36.36,0,0,1,.25,0l10,3.79a.35.35,0,0,1,0,.65Z"/><path class="a" d="M12,12,23.89,6.91a.29.29,0,0,0,.17-.17.27.27,0,0,0,0-.23.29.29,0,0,0-.17-.17.31.31,0,0,0-.23,0L12.18,11.25a.34.34,0,0,1-.28,0L.43,6.34l-.12,0A.3.3,0,0,0,0,6.51a.3.3,0,0,0,.16.4h0Z"/><path class="a" d="M12,13.63,23.89,8.55a.29.29,0,0,0,.17-.17.27.27,0,0,0,0-.23A.29.29,0,0,0,23.88,8a.31.31,0,0,0-.23,0L12.18,12.89a.34.34,0,0,1-.28,0L.43,8,.31,8A.3.3,0,0,0,0,8.15a.27.27,0,0,0,0,.23.29.29,0,0,0,.17.17Z"/><path class="a" d="M12,15.27,23.89,10.2a.31.31,0,0,0,.16-.41.29.29,0,0,0-.4-.16l-11.47,4.9a.34.34,0,0,1-.28,0L.43,9.62a.31.31,0,0,0-.4.17.31.31,0,0,0,.16.41Z"/></svg>