<svg xmlns="http://www.w3.org/2000/svg" width="54.91" height="20.17" viewBox="0 0 54.91 20.17"><defs><style>.a{fill:#d21e47;}</style></defs><title>Kelloggs_Sprite</title><path class="a" d="M49.77,4.43a1.38,1.38,0,0,0-1.45,1.28c.09.46.09.69.37.87s.32.76.07.85a.57.57,0,0,0-.12.42c0,.29,0,.34.49.29.71,0,2-1.51,2-2.47,0-1.24-1.35-1.24-1.35-1.24m-.87,7.62L51.49,10s0,2-.85,2.8c-.39.37-.78.55-.8.23S49.77,12.05,48.9,12.05Zm-7.35,4.33a6.84,6.84,0,0,1-1.72,1.84c-.57.36-.92-.07-.41-.5C39.69,17.39,40.79,16.38,41.55,16.38Zm2.66-1.17a25.54,25.54,0,0,0,3.26-2.15c0,.75-.16,2.47,1.93,2.47,3.42,0,4.18-4.1,3.92-5.2-.11-.92.26-1.36.85-1.36s.74-.36.74-.94S54,6.91,53.1,7.34c-2.05.85-7.51,5.33-7.51,5.33,1.47-2.09,1.63-2.48,1.63-2.81s-.11-.78-.66-.78c-1,0-1.31.49-1.8,1.31-.59,1-1.32,1.81-1.72,1.81s-.54,0-.54-.63c.09-1.24,1.9-2.09,3-2.49.82-.31.73-.47.73-.78s-.25-.54-.78-.48c-1.56,0-5.67,2.21-5.8,4.94a1.5,1.5,0,0,0,1.54,1.56A3.59,3.59,0,0,0,43,13.63a2.75,2.75,0,0,1-.54,1c-4.76,1.1-5.22,3.53-5.22,4.29s.33,1.26,1.2,1.26c3.07,0,5.69-4.93,5.69-4.93ZM33.64,16.54a3.12,3.12,0,0,1-1.5,1.68c-.59.3-.87-.11-.43-.5A3.45,3.45,0,0,1,33.64,16.54ZM29.76,8a5.44,5.44,0,0,0-4.41,5,2,2,0,0,0,2.21,2.2c3.39,0,4.58-5.43,4.58-5.43A6.09,6.09,0,0,0,34,10a4.55,4.55,0,0,0-1.79,2.89,1.43,1.43,0,0,0,1.49,1.54,4,4,0,0,0,1.89-.69,3,3,0,0,1-.57,1C29.94,15.88,29.3,18.49,29.3,19c0,.62.64,1.11,1.47,1.11,2.78,0,5.78-4.43,5.78-4.43a4.32,4.32,0,0,0,2.87-2.57c0-.3-.28-.48-.64-.12-.8.64-1.08.64-1.08.64A13.85,13.85,0,0,0,40.29,9c0-.36-.12-.83-.73-.83-.94,0-1.77,1.54-2.25,2.32-.64,1-1.35,2-1.86,2s-.5,0-.5-.62c0-.87,1.86-2.25,2.57-2.6s.77-.5.77-.75c0-.51-.23-.62-.77-.62a4.79,4.79,0,0,0-1.34.39,4.77,4.77,0,0,1-4.43.09,2.17,2.17,0,0,0-1.12.76c-.05,2.11-1.7,3.58-2.07,3.53S28,12.76,28,12c0-1.67,2-2.73,2.15-2.86s.39.13.44-.48S29.76,8,29.76,8ZM12,11.57a3.75,3.75,0,0,1,.6-1.71c.85-1,1.21-.78.64.33A2.92,2.92,0,0,1,12,11.57ZM23.56,9.15A14.45,14.45,0,0,1,26,5c1.2-1.3,1.47-.87.78.26S24.48,8.84,23.56,9.15ZM10,12.58c-.89.18-1.16.36-1.16,1.05s1.58.27,1.58.27c0,.39.5.95,1.72.95a6.36,6.36,0,0,0,3.37-1.41,2.14,2.14,0,0,0,2,1.41,7.06,7.06,0,0,0,3.57-1.41,1.81,1.81,0,0,0,1.7,1.7c2.46,0,2.2-2.56,2.2-2.56-2,.63-1.62-1-1.62-1,3.6-3,6.37-7.3,6.37-9.12,0-.78-.64-1.49-1.69-.89a14.77,14.77,0,0,0-7,9.64,3.92,3.92,0,0,1-2.52,1.3c-.75,0-.75-.8-.75-.8C21.08,9.15,23.49,5,23.49,3.63c0-.83-.7-1.31-1.71-.83-5.14,2.06-6.41,8.77-6.41,8.77C13,13.63,12.5,12.76,12.5,12.76a4.87,4.87,0,0,0,2.74-4,1.18,1.18,0,0,0-1.36-1.29C10.19,8.33,10,12.58,10,12.58ZM6.86,8.69a3.28,3.28,0,0,1-.37,2.51,5.69,5.69,0,0,0-.92,3.26c0,1.81.92,2.41,2.26,2.41,1.49,0,1.41-.92,1.41-.92-1-.07-1-1.95-.38-3.65a5.63,5.63,0,0,0,.07-3.88c2.61-1,7.68-4.91,7.68-7.09A1.26,1.26,0,0,0,15.49,0c-.62,0-1.18.23-2,1.38-4.34,6-6,6.15-6,6.15Zm-5.37.88c1.19,0,1.84-1,2.29-1.54.24-.27,1-1.29,1.41-1.63s.78-.14.43.34a11.29,11.29,0,0,1-2.89,3.59C-.16,12.67.07,13.31,0,14a1.12,1.12,0,0,0,1.24,1.27C2.89,15.24,4,13.1,4.79,12c0-.2,3-5.76,3.29-6.08a32.88,32.88,0,0,0,1.88-3c0-.16.11-.59-.64-.59S8,3,7.18,3.54a34.4,34.4,0,0,1-3,1.69C1.56,6.52.32,7.43.32,8.54A1,1,0,0,0,1.49,9.57Zm16.2,0A11.34,11.34,0,0,1,20,5.8c1.31-1.26,1.51-.89.8.24S18.68,9.22,17.69,9.54Z"/></svg>