<svg xmlns="http://www.w3.org/2000/svg" width="12.43" height="13.57" viewBox="0 0 12.43 13.57"><defs><style>.a,.b{fill:none;stroke-linecap:round;stroke-linejoin:round;}.a{stroke:#163567;stroke-width:0.57px;}.b{stroke:#f9f8f7;}</style></defs><title>Kelloggs_Sprite</title><path class="a" d="M11.59,7.63V12.3a1,1,0,0,1-1,1H1.27a1,1,0,0,1-1-1V3a1,1,0,0,1,1-1H5.93"/><line class="a" x1="9.89" y1="0.28" x2="12.15" y2="2.54"/><line class="a" x1="9.89" y1="4.8" x2="12.15" y2="2.54"/><path class="a" d="M5.37,9.33l.11-2a4.95,4.95,0,0,1,5-4.81h1.68"/><path class="b" d="M11.59,7.63V12.3a1,1,0,0,1-1,1H1.27a1,1,0,0,1-1-1V3a1,1,0,0,1,1-1H5.93"/><line class="b" x1="9.89" y1="0.28" x2="12.15" y2="2.54"/><line class="b" x1="9.89" y1="4.8" x2="12.15" y2="2.54"/><path class="b" d="M5.37,9.33l.11-2a4.95,4.95,0,0,1,5-4.81h1.68"/></svg>