<svg xmlns="http://www.w3.org/2000/svg" width="22.6" height="20.75" viewBox="0 0 22.6 20.75"><defs><style>.a{fill:none;stroke:#5e5e5e;stroke-miterlimit:10;stroke-width:0.75px;}</style></defs><title>Kelloggs_Sprite</title><path class="a" d="M12.85,2.59a8.68,8.68,0,0,0-2.42-2c-3,1.66-5.1,5.42-5.1,9.8s2.1,8.13,5.1,9.79a10.27,10.27,0,0,0,4.71-6.63"/><path class="a" d="M18.5,16.2A10,10,0,1,1,14.21,1.14"/><path class="a" d="M11.9,6.9A9.58,9.58,0,0,1,10.37,7,10,10,0,0,1,2.93,3.7"/><path class="a" d="M3,17.08a10,10,0,0,1,14.74,0"/><line class="a" x1="10.43" y1="0.58" x2="10.43" y2="19.87"/><path class="a" d="M18.24,2.1a4,4,0,0,0-4,4c0,2.73,3.57,6.74,3.72,6.91a.36.36,0,0,0,.54,0c.15-.17,3.72-4.18,3.72-6.91A4,4,0,0,0,18.24,2.1Zm0,6a2,2,0,1,1,2-2A2,2,0,0,1,18.24,8.09Z"/></svg>