<svg xmlns="http://www.w3.org/2000/svg" width="21.41" height="27.43" viewBox="0 0 21.41 27.43"><defs><style>.a{fill:#5e5b5c;fill-rule:evenodd;}</style></defs><title>Kelloggs_Sprite</title><path class="a" d="M10.71,27.43a3.73,3.73,0,0,1-2.41-.88A4,4,0,0,1,7,24.36V19.7q0-.36,0-.75a4.13,4.13,0,0,0-1.11-2.13A10.74,10.74,0,0,1,3.77,13a.44.44,0,0,1,0-.32.43.43,0,0,1,.26-.2h0a.44.44,0,0,1,.47.3,10,10,0,0,0,1.92,3.57A4.65,4.65,0,0,1,7.79,19v.31h2.48V17.9a.43.43,0,0,1,.85,0v1.36h2.49V19a4.62,4.62,0,0,1,1.28-2.64,8.65,8.65,0,0,0,2.17-5.6,6.37,6.37,0,0,0-12.41-2,.43.43,0,0,1-.4.29h0L4.12,9a.43.43,0,0,1-.24-.22.44.44,0,0,1,0-.32,7.22,7.22,0,0,1,14.07,2.27,9.52,9.52,0,0,1-2.34,6.11A4.13,4.13,0,0,0,14.47,19c0,.26,0,.51,0,.74v4.58a4,4,0,0,1-1.32,2.28A3.77,3.77,0,0,1,10.71,27.43ZM8,24.86a2.92,2.92,0,0,0,5.33,0l.08-.16H8Zm-.22-1h5.77V22.4H7.82Zm0-2.3h5.77V20.11H7.82Z"/><path class="a" d="M10.71,2.29a.43.43,0,0,1-.43-.43V.42a.43.43,0,0,1,.85,0V1.86A.42.42,0,0,1,10.71,2.29Z"/><path class="a" d="M.42,11.13a.43.43,0,0,1,0-.85H1.86a.43.43,0,1,1,0,.85Z"/><path class="a" d="M10.71,14a.42.42,0,0,1-.43-.42V12.22H8.77a.43.43,0,0,1,0-.85h3.87a.43.43,0,0,1,0,.85H11.13v1.36A.42.42,0,0,1,10.71,14Z"/><path class="a" d="M4.45,4.88a.43.43,0,0,1-.3-.13l-1-1A.43.43,0,0,1,3.44,3a.43.43,0,0,1,.3.13l1,1a.43.43,0,0,1-.3.73Z"/><path class="a" d="M3.06,18.77a.42.42,0,0,1-.3-.12.43.43,0,0,1,0-.6l1-1a.43.43,0,0,1,.6,0,.42.42,0,0,1,0,.6l-1,1A.41.41,0,0,1,3.06,18.77Z"/><path class="a" d="M17,4.88a.43.43,0,0,1-.3-.73l1-1A.42.42,0,0,1,18,3a.43.43,0,0,1,.3.73l-1,1A.43.43,0,0,1,17,4.88Z"/><path class="a" d="M18.35,18.77a.42.42,0,0,1-.3-.12l-1-1a.43.43,0,0,1,0-.6.43.43,0,0,1,.6,0l1,1a.43.43,0,0,1,0,.6A.42.42,0,0,1,18.35,18.77Z"/><path class="a" d="M19.55,11.13a.43.43,0,1,1,0-.85H21a.43.43,0,0,1,0,.85Z"/><path class="a" d="M10.71,16.16a.42.42,0,1,1,.42-.42A.42.42,0,0,1,10.71,16.16Z"/><path class="a" d="M3.91,11.13a.43.43,0,0,1,0-.85.43.43,0,1,1,0,.85Z"/></svg>