<svg xmlns="http://www.w3.org/2000/svg" width="16.59" height="15.53" viewBox="0 0 16.59 15.53"><defs><style>.a{fill:#777;}</style></defs><title>Kelloggs_Sprite</title><path class="a" d="M8.82,15.53H8.75L.31,13.94A.38.38,0,0,1,0,13.57V2a.38.38,0,0,1,.31-.38L8.75,0h.07a.38.38,0,0,1,.25.09.37.37,0,0,1,.14.3V15.15a.37.37,0,0,1-.14.29A.38.38,0,0,1,8.82,15.53ZM.77,2.29v11l7.66,1.44V.85Z"/><path class="a" d="M8.82,13.42A.39.39,0,0,1,8.43,13a.4.4,0,0,1,.39-.39h7V2.88h-7a.39.39,0,1,1,0-.77H16.2a.39.39,0,0,1,.39.38V13a.39.39,0,0,1-.39.38Z"/><path class="a" d="M8.82,11.32a.39.39,0,0,1,0-.78h5.27a.39.39,0,0,1,0,.78Z"/><path class="a" d="M3.55,11.32a.4.4,0,0,1-.39-.39V5.66a.39.39,0,0,1,.78,0v5.27A.4.4,0,0,1,3.55,11.32Z"/><path class="a" d="M3.55,9.21a.39.39,0,0,1,0-.78H5.13A1.2,1.2,0,1,0,5.13,6H3.55a.39.39,0,1,1,0-.77H5.13a2,2,0,0,1,0,3.94Z"/><path class="a" d="M12,9.21a2.5,2.5,0,1,1,2.5-2.5A2.5,2.5,0,0,1,12,9.21ZM12,5a1.72,1.72,0,1,0,1.73,1.72A1.72,1.72,0,0,0,12,5Z"/><path class="a" d="M12,7.1a.39.39,0,0,1-.38-.39V4.6a.39.39,0,0,1,.77,0V6.33h1.72a.38.38,0,0,1,.39.38.39.39,0,0,1-.39.39Z"/></svg>