<svg xmlns="http://www.w3.org/2000/svg" width="20.95" height="20.95" viewBox="0 0 20.95 20.95"><defs><style>.a,.b,.c{fill:none;stroke-linecap:round;stroke-linejoin:round;}.a,.b{stroke:#8c8c8c;}.a,.c{stroke-width:0.63px;}.b{stroke-width:0.7px;}.c{stroke:#bc0f34;}</style></defs><title>Kelloggs_Sprite</title><polyline class="a" points="7.37 7.64 4.53 10.47 7.37 13.31"/><line class="a" x1="4.53" y1="10.47" x2="12.98" y2="10.47"/><line class="a" x1="15.11" y1="10.47" x2="16.42" y2="10.47"/><polyline class="b" points="7.37 7.64 4.53 10.47 7.37 13.31"/><line class="b" x1="4.53" y1="10.47" x2="12.98" y2="10.47"/><line class="b" x1="15.11" y1="10.47" x2="16.42" y2="10.47"/><circle class="b" cx="10.47" cy="10.47" r="10.12"/><polyline class="c" points="7.37 7.64 4.53 10.47 7.37 13.31"/><line class="c" x1="4.53" y1="10.47" x2="12.98" y2="10.47"/><line class="c" x1="15.11" y1="10.47" x2="16.42" y2="10.47"/><polyline class="c" points="7.37 7.64 4.53 10.47 7.37 13.31"/><line class="c" x1="4.53" y1="10.47" x2="12.98" y2="10.47"/><line class="c" x1="15.11" y1="10.47" x2="16.42" y2="10.47"/><polyline class="c" points="7.37 7.64 4.53 10.47 7.37 13.31"/><line class="c" x1="4.53" y1="10.47" x2="12.98" y2="10.47"/><line class="c" x1="15.11" y1="10.47" x2="16.42" y2="10.47"/><circle class="c" cx="10.47" cy="10.47" r="10.12"/></svg>