<svg xmlns="http://www.w3.org/2000/svg" width="20.52" height="25.14" viewBox="0 0 20.52 25.14"><defs><style>.a{fill:none;}.a,.b{stroke:#e82343;stroke-linecap:round;stroke-linejoin:round;stroke-width:0.75px;}.b{fill:#e82343;}</style></defs><title>Kelloggs_Sprite</title><path class="a" d="M18.18,24.77H2.34a2,2,0,0,1-2-2V2.34a2,2,0,0,1,2-2h12.9l4.91,4.91V22.81A2,2,0,0,1,18.18,24.77Z"/><polyline class="b" points="14.98 0.7 14.98 5.45 20.15 5.45"/><line class="a" x1="3.67" y1="5.24" x2="5.26" y2="5.24"/><line class="a" x1="7.23" y1="5.24" x2="8.82" y2="5.24"/><rect class="a" x="3.36" y="8.05" width="13.8" height="3.5" rx="0.57"/><polyline class="a" points="14.7 9.59 15.27 10.11 15.81 9.59"/><line class="a" x1="3.67" y1="14.94" x2="5.26" y2="14.94"/><line class="a" x1="7.23" y1="14.94" x2="8.82" y2="14.94"/><rect class="a" x="3.36" y="17.75" width="13.8" height="3.5" rx="0.57"/><polyline class="a" points="14.7 19.29 15.27 19.8 15.81 19.29"/></svg>