<svg xmlns="http://www.w3.org/2000/svg" width="50.13" height="61.5" viewBox="0 0 50.13 61.5"><defs><style>.a{fill:none;}.a,.b{stroke:#d11245;stroke-miterlimit:10;stroke-width:1.5px;}.b{fill:#d11245;}</style></defs><title>Kelloggs_Sprite</title><path class="a" d="M47.42,60.75H2.71a2,2,0,0,1-2-2V2.71a2,2,0,0,1,2-2H37.38l12,12v46A2,2,0,0,1,47.42,60.75Z"/><polyline class="b" points="36.67 0.75 36.67 13.24 49.38 13.24"/><line class="a" x1="8.86" y1="12.72" x2="12.77" y2="12.72"/><line class="a" x1="17.62" y1="12.72" x2="21.52" y2="12.72"/><rect class="a" x="8.1" y="19.64" width="33.94" height="8.61" rx="0.57"/><polyline class="a" points="35.99 23.42 37.39 24.69 38.73 23.42"/><line class="a" x1="8.86" y1="36.56" x2="12.77" y2="36.56"/><line class="a" x1="17.62" y1="36.56" x2="21.52" y2="36.56"/><rect class="a" x="8.1" y="43.48" width="33.94" height="8.61" rx="0.57"/><polyline class="a" points="35.99 47.27 37.39 48.53 38.73 47.27"/></svg>