<svg xmlns="http://www.w3.org/2000/svg" width="12.82" height="12.82" viewBox="0 0 12.82 12.82"><defs><style>.a{fill:#f8f8f8;}</style></defs><title>Kelloggs_Sprite</title><path class="a" d="M12.82,12a.8.8,0,0,1-.8.8H.8A.8.8,0,0,1,0,12V.8A.8.8,0,0,1,.8,0H8.55A2.21,2.21,0,0,1,9.92.57L12.25,2.9a2.21,2.21,0,0,1,.57,1.37Zm-1.07-.27V4.27a1.26,1.26,0,0,0-.25-.61L9.16,1.32a1.17,1.17,0,0,0-.61-.25V4.54a.8.8,0,0,1-.8.8H2.94a.8.8,0,0,1-.8-.8V1.07H1.07V11.75H2.14V8.28a.8.8,0,0,1,.8-.8H9.88a.8.8,0,0,1,.8.8v3.47Zm-2.13,0V8.55H3.21v3.2ZM7.48,1.33a.27.27,0,0,0-.27-.26H5.61a.27.27,0,0,0-.27.26V4a.27.27,0,0,0,.27.26h1.6A.27.27,0,0,0,7.48,4Z"/></svg>