<svg xmlns="http://www.w3.org/2000/svg" width="27.06" height="27" viewBox="0 0 27.06 27"><defs><style>.a,.b{fill:none;stroke:#5e5e5e;}.a{stroke-miterlimit:10;stroke-width:0.64px;}.b{stroke-linecap:round;stroke-linejoin:round;stroke-width:0.73px;}</style></defs><title>Kelloggs_Sprite</title><path class="a" d="M18.53,13a.78.78,0,0,0-.43-1.33l-2.63-.38a.36.36,0,0,1-.26-.19L14,8.72a.77.77,0,0,0-1.39,0L11.46,11.1a.36.36,0,0,1-.26.19l-2.63.38A.78.78,0,0,0,8.14,13L10,14.85a.36.36,0,0,1,.1.31l-.45,2.62a.78.78,0,0,0,1.13.82l2.35-1.24a.38.38,0,0,1,.33,0l2.35,1.24a.77.77,0,0,0,.36.09.78.78,0,0,0,.77-.91l-.45-2.62a.33.33,0,0,1,.1-.31Z"/><circle class="a" cx="13.33" cy="1.68" r="1.36"/><circle class="a" cx="22.79" cy="6.12" r="1.36"/><circle class="a" cx="25.38" cy="16.24" r="1.36"/><circle class="a" cx="19.23" cy="24.68" r="1.36"/><circle class="a" cx="8.81" cy="25.31" r="1.36"/><circle class="a" cx="1.68" cy="17.68" r="1.36"/><circle class="a" cx="3.03" cy="7.32" r="1.36"/><line class="a" x1="13.33" y1="3.12" x2="13.33" y2="6.46"/><line class="a" x1="21.61" y1="7.1" x2="19.08" y2="9.19"/><line class="a" x1="23.81" y1="16.02" x2="20.6" y2="15.41"/><line class="a" x1="18.35" y1="23.4" x2="16.74" y2="20.48"/><line class="a" x1="9.17" y1="23.89" x2="10.43" y2="20.72"/><line class="a" x1="2.95" y1="17.14" x2="6.23" y2="16.07"/><line class="a" x1="4.18" y1="8.04" x2="7.09" y2="9.88"/><path class="b" d="M18.53,13a.78.78,0,0,0-.43-1.33l-2.63-.38a.36.36,0,0,1-.26-.19L14,8.72a.77.77,0,0,0-1.39,0L11.46,11.1a.36.36,0,0,1-.26.19l-2.63.38A.78.78,0,0,0,8.14,13L10,14.85a.36.36,0,0,1,.1.31l-.45,2.62a.78.78,0,0,0,1.13.82l2.35-1.24a.38.38,0,0,1,.33,0l2.35,1.24a.77.77,0,0,0,.36.09.78.78,0,0,0,.77-.91l-.45-2.62a.33.33,0,0,1,.1-.31Z"/><circle class="b" cx="13.33" cy="1.68" r="1.36"/><circle class="b" cx="22.79" cy="6.12" r="1.36"/><circle class="b" cx="25.38" cy="16.24" r="1.36"/><circle class="b" cx="19.23" cy="24.68" r="1.36"/><circle class="b" cx="8.81" cy="25.31" r="1.36"/><circle class="b" cx="1.68" cy="17.68" r="1.36"/><circle class="b" cx="3.03" cy="7.32" r="1.36"/><line class="b" x1="13.33" y1="3.12" x2="13.33" y2="6.46"/><line class="b" x1="21.61" y1="7.1" x2="19.08" y2="9.19"/><line class="b" x1="23.81" y1="16.02" x2="20.6" y2="15.41"/><line class="b" x1="18.35" y1="23.4" x2="16.74" y2="20.48"/><line class="b" x1="9.17" y1="23.89" x2="10.43" y2="20.72"/><line class="b" x1="2.95" y1="17.14" x2="6.23" y2="16.07"/><line class="b" x1="4.18" y1="8.04" x2="7.09" y2="9.88"/></svg>