<svg xmlns="http://www.w3.org/2000/svg" width="22.76" height="22.76" viewBox="0 0 22.76 22.76"><defs><style>.a{fill:#5e5e5e;}</style></defs><title>Kelloggs_Sprite</title><path class="a" d="M5,22.22H.54V17.8a.27.27,0,1,0-.54,0v4.69a.27.27,0,0,0,.27.27H5a.27.27,0,0,0,0-.54Z"/><path class="a" d="M22.49,17.53a.27.27,0,0,0-.27.27v4.42H17.79a.27.27,0,0,0,0,.54h4.7a.27.27,0,0,0,.27-.27V17.8A.27.27,0,0,0,22.49,17.53Z"/><path class="a" d="M22.49,0h-4.7a.27.27,0,0,0-.26.27.27.27,0,0,0,.26.27h4.43V5a.27.27,0,1,0,.54,0V.27A.27.27,0,0,0,22.49,0Z"/><path class="a" d="M.27,5.23A.27.27,0,0,0,.54,5V.54H5A.27.27,0,0,0,5,0H.27A.27.27,0,0,0,0,.27V5A.27.27,0,0,0,.27,5.23Z"/><path class="a" d="M8.55,14.77h9.06L19.91,8H6.28L4.91,3.87H2.84v.61H4.47L8.59,16.83h.95l-.1.28a1.33,1.33,0,1,0,2.52,0l-.1-.28h2.83l-.1.28a1.33,1.33,0,1,0,2.59.45,1.41,1.41,0,0,0-.07-.45l-.1-.28h.69v-.61H9ZM19.06,8.59,17.4,13.51,15.76,8.59Zm-3.95,0L17,14.16H14.52L12.67,8.59ZM12,8.59l1.85,5.57H11.43L9.58,8.59Zm-5.54,0H8.94l1.85,5.57H8.34Zm9.36,8.24a.73.73,0,0,1,.72.73.72.72,0,0,1-.72.72.73.73,0,0,1-.73-.72A.73.73,0,0,1,15.85,16.83Zm-5.15,0a.73.73,0,0,1,.72.73.72.72,0,0,1-.72.72.73.73,0,0,1-.73-.72A.73.73,0,0,1,10.7,16.83Z"/></svg>