<svg xmlns="http://www.w3.org/2000/svg" width="20" height="20" viewBox="0 0 20 20"><defs><style>.a{fill:#5e5b5c;}.b{fill:none;}</style></defs><title>Kelloggs_Sprite</title><path class="a" d="M.33,20A.33.33,0,0,1,0,19.68V15.59a.33.33,0,0,1,.33-.33.33.33,0,0,1,.32.33v3.76H4.41a.33.33,0,1,1,0,.65Z"/><path class="a" d="M4.41,19.44H.56V15.59a.24.24,0,0,0-.47,0v4.09a.24.24,0,0,0,.24.23H4.41a.24.24,0,0,0,0-.47Z"/><path class="a" d="M15.59,20a.33.33,0,1,1,0-.65h3.76V15.59a.32.32,0,0,1,.32-.33.33.33,0,0,1,.33.33v4.09a.33.33,0,0,1-.33.32Z"/><path class="a" d="M19.67,15.36a.23.23,0,0,0-.23.23v3.85H15.59a.24.24,0,1,0,0,.47h4.08a.24.24,0,0,0,.24-.23V15.59A.23.23,0,0,0,19.67,15.36Z"/><path class="a" d="M19.67,4.74a.32.32,0,0,1-.32-.33V.65H15.59a.33.33,0,0,1-.33-.33A.33.33,0,0,1,15.59,0h4.08A.33.33,0,0,1,20,.32V4.41A.33.33,0,0,1,19.67,4.74Z"/><path class="a" d="M19.67.09H15.59a.24.24,0,0,0-.24.23.24.24,0,0,0,.24.24h3.85V4.41a.23.23,0,0,0,.23.23.23.23,0,0,0,.24-.23V.32A.24.24,0,0,0,19.67.09Z"/><path class="a" d="M.33,4.74A.33.33,0,0,1,0,4.41V.32A.33.33,0,0,1,.33,0H4.41a.33.33,0,0,1,.33.32.33.33,0,0,1-.33.33H.65V4.41A.33.33,0,0,1,.33,4.74Z"/><path class="a" d="M.33,4.64a.23.23,0,0,0,.23-.23V.56H4.41a.24.24,0,0,0,0-.47H.33A.24.24,0,0,0,.09.32V4.41A.23.23,0,0,0,.33,4.64Z"/><polygon class="b" points="12.18 12.42 10.56 7.58 8.43 7.58 10.05 12.42 12.18 12.42"/><polygon class="b" points="7.87 7.58 5.74 7.58 7.36 12.42 9.49 12.42 7.87 7.58"/><polygon class="b" points="16.69 7.58 13.81 7.58 15.24 11.86 16.69 7.58"/><polygon class="b" points="14.87 12.42 13.25 7.58 11.12 7.58 12.74 12.42 14.87 12.42"/><path class="b" d="M13.89,16a.63.63,0,1,0-.63-.63A.63.63,0,0,0,13.89,16Z"/><path class="b" d="M9.41,16a.63.63,0,1,0-.63-.63A.63.63,0,0,0,9.41,16Z"/><polygon class="b" points="14.87 12.42 13.25 7.58 11.12 7.58 12.74 12.42 14.87 12.42"/><polygon class="b" points="16.69 7.58 13.81 7.58 15.24 11.86 16.69 7.58"/><polygon class="b" points="12.18 12.42 10.56 7.58 8.43 7.58 10.05 12.42 12.18 12.42"/><path class="b" d="M9.41,16a.63.63,0,1,0-.63-.63A.63.63,0,0,0,9.41,16Z"/><polygon class="b" points="7.87 7.58 5.74 7.58 7.36 12.42 9.49 12.42 7.87 7.58"/><path class="b" d="M13.89,16a.63.63,0,1,0-.63-.63A.63.63,0,0,0,13.89,16Z"/><path class="a" d="M7.53,13h7.9l2-5.92H5.56L4.37,3.46H2.57V4H4L7.57,14.74H8.4L8.31,15a1.23,1.23,0,0,0-.06.39,1.16,1.16,0,1,0,2.32,0A1,1,0,0,0,10.5,15l-.08-.25h2.46L12.8,15a1,1,0,0,0-.07.39,1.16,1.16,0,1,0,2.32,0A1.32,1.32,0,0,0,15,15l-.09-.24h.6v-.53H8Zm9.16-5.39-1.45,4.29L13.81,7.57Zm-3.44,0,1.62,4.85H12.74L11.12,7.57Zm-2.69,0,1.62,4.85H10.05L8.43,7.57Zm-4.82,0H7.87l1.62,4.85H7.36Zm8.15,7.18a.63.63,0,1,1-.63.63A.63.63,0,0,1,13.89,14.75Zm-4.48,0a.63.63,0,1,1-.63.63A.63.63,0,0,1,9.41,14.75Z"/></svg>