<svg xmlns="http://www.w3.org/2000/svg" width="22.27" height="24.75" viewBox="0 0 22.27 24.75"><defs><style>.a{fill:#5e5b5c;}</style></defs><title>Kelloggs_Sprite</title><path class="a" d="M20.5,24.75H1.77A1.77,1.77,0,0,1,0,23V4.25A1.77,1.77,0,0,1,1.77,2.48H20.5a1.77,1.77,0,0,1,1.77,1.77V23A1.77,1.77,0,0,1,20.5,24.75ZM1.77,3.23a1,1,0,0,0-1,1V23a1,1,0,0,0,1,1H20.5a1,1,0,0,0,1-1V4.25a1,1,0,0,0-1-1Z"/><path class="a" d="M5.22,5.09a.38.38,0,0,1-.37-.37V.38a.38.38,0,1,1,.75,0V4.72A.38.38,0,0,1,5.22,5.09Z"/><path class="a" d="M11.14,5.09a.38.38,0,0,1-.38-.37V.38a.38.38,0,1,1,.75,0V4.72A.38.38,0,0,1,11.14,5.09Z"/><path class="a" d="M17.05,5.09a.38.38,0,0,1-.38-.37V.38A.38.38,0,0,1,17.05,0a.37.37,0,0,1,.37.38V4.72A.37.37,0,0,1,17.05,5.09Z"/><path class="a" d="M6.76,12.3H3.94a.38.38,0,0,1-.38-.38V9.1a.38.38,0,0,1,.38-.38H6.76a.38.38,0,0,1,.38.38v2.82A.38.38,0,0,1,6.76,12.3Zm-2.45-.75H6.39V9.47H4.31Z"/><path class="a" d="M12.55,12.3H9.72a.38.38,0,0,1-.37-.38V9.1a.38.38,0,0,1,.37-.38h2.83a.37.37,0,0,1,.37.38v2.82A.37.37,0,0,1,12.55,12.3Zm-2.45-.75h2.07V9.47H10.1Z"/><path class="a" d="M18.33,12.3H15.51a.38.38,0,0,1-.38-.38V9.1a.38.38,0,0,1,.38-.38h2.82a.38.38,0,0,1,.38.38v2.82A.38.38,0,0,1,18.33,12.3Zm-2.45-.75H18V9.47H15.88Z"/><path class="a" d="M6.76,19.52H3.94a.38.38,0,0,1-.38-.38V16.32a.38.38,0,0,1,.38-.38H6.76a.38.38,0,0,1,.38.38v2.82A.38.38,0,0,1,6.76,19.52Zm-2.45-.75H6.39V16.69H4.31Z"/><path class="a" d="M12.55,19.52H9.72a.38.38,0,0,1-.37-.38V16.32a.38.38,0,0,1,.37-.38h2.83a.37.37,0,0,1,.37.38v2.82A.37.37,0,0,1,12.55,19.52Zm-2.45-.75h2.07V16.69H10.1Z"/><path class="a" d="M18.33,19.52H15.51a.38.38,0,0,1-.38-.38V16.32a.38.38,0,0,1,.38-.38h2.82a.38.38,0,0,1,.38.38v2.82A.38.38,0,0,1,18.33,19.52Zm-2.45-.75H18V16.69H15.88Z"/></svg>