<svg xmlns="http://www.w3.org/2000/svg" width="23.25" height="20.43" viewBox="0 0 23.25 20.43"><defs><style>.a{fill:#5e5b5c;}</style></defs><title>Kelloggs_Sprite</title><path class="a" d="M14.82,20.43a8.12,8.12,0,0,1-5-1.71A8.06,8.06,0,0,1,6.79,13.9,8.12,8.12,0,0,1,8.71,6.57a8,8,0,0,1,4.71-2.64,5,5,0,0,1,.79-.1.44.44,0,0,0,.33-.13.4.4,0,0,0,.08-.33,1.22,1.22,0,0,1,0-.27V2.88c0-.15,0-.25-.08-.33a.29.29,0,0,0-.23-.08h-.19a1.36,1.36,0,0,1-.91-.28A1.23,1.23,0,0,1,12.8.86,1.2,1.2,0,0,1,13.9,0h1c.34,0,.67,0,1,0A1.21,1.21,0,0,1,17.1,1.24,1.23,1.23,0,0,1,16,2.47h-.2c-.46,0-.54.09-.53.55,0,0,0,.1,0,.15a.81.81,0,0,0,.07.51.46.46,0,0,0,.4.16h.25A8.22,8.22,0,0,1,19.06,4.9a.48.48,0,0,0,.25.09.37.37,0,0,0,.32-.25A5.84,5.84,0,0,1,20,4.17a.34.34,0,0,0,.08-.28.35.35,0,0,0-.21-.23c-.19-.11-.38-.22-.56-.34S19,3,19.15,2.8c.3-.49.59-1,.9-1.47.13-.22.24-.22.28-.22a.48.48,0,0,1,.24.09l2.28,1.38c.23.14.26.28.12.52-.3.49-.59,1-.9,1.47-.11.19-.21.21-.27.21a.53.53,0,0,1-.23-.08c-.2-.11-.39-.22-.58-.35a.35.35,0,0,0-.22-.08.36.36,0,0,0-.3.21,5.65,5.65,0,0,1-.35.59.4.4,0,0,0,.08.63,7.55,7.55,0,0,1,1.68,1.87,8.24,8.24,0,0,1,1.31,3.79.58.58,0,0,0,.06.26v1l0,.33c0,.26-.07.51-.13.76a8.31,8.31,0,0,1-8.17,6.69Zm.09-16.07A7.73,7.73,0,0,0,9.45,6.64,7.62,7.62,0,0,0,7.2,12.1a7.76,7.76,0,0,0,7.72,7.72,7.73,7.73,0,0,0,7.72-7.74,7.75,7.75,0,0,0-7.71-7.72Zm5.62-2.45a.3.3,0,0,0-.26.18l-.07.12q-.12.21-.24.39a.35.35,0,0,0-.08.28.37.37,0,0,0,.21.24l.45.27.47.28.13.1a.72.72,0,0,0,.43.2.6.6,0,0,0,.44-.4,1,1,0,0,1,.08-.15l.11-.19,0-.06c0-.25-.09-.32-.12-.34L20.7,2A.32.32,0,0,0,20.53,1.91ZM14.05.59a.69.69,0,0,0-.57.24.64.64,0,0,0-.1.66.66.66,0,0,0,.62.4h1.81a.65.65,0,1,0,0-1.3H14.05Z"/><path class="a" d="M.4,12.38H.23A.29.29,0,0,1,0,12.09a.3.3,0,0,1,.24-.28H4.45a.46.46,0,0,1,.31.1.3.3,0,0,1,.07.2c0,.07,0,.28-.4.28H.4Z"/><path class="a" d="M1.76,10c-.11,0-.3,0-.33-.24a.28.28,0,0,1,.16-.32.69.69,0,0,1,.26,0H4.93c.11,0,.37,0,.37.3s-.14.28-.37.29H1.76Z"/><path class="a" d="M1.77,14.74c-.3,0-.33-.17-.34-.22a.25.25,0,0,1,.05-.24.3.3,0,0,1,.27-.12H5a.28.28,0,0,1,.3.25.28.28,0,0,1-.16.3.54.54,0,0,1-.23,0H1.77Z"/><path class="a" d="M3.21,7.67c-.33,0-.36-.19-.37-.26a.26.26,0,0,1,.22-.31.71.71,0,0,1,.21,0H5.82L6,7.1a.26.26,0,0,1,.21.27A.27.27,0,0,1,6,7.65l-.22,0H3.21Z"/><path class="a" d="M3.24,17.11c-.32,0-.37-.15-.39-.2a.27.27,0,0,1,0-.25.37.37,0,0,1,.32-.14H5.89a.42.42,0,0,1,.29.1.36.36,0,0,1,.06.23.27.27,0,0,1-.2.23.89.89,0,0,1-.22,0H3.24Z"/><path class="a" d="M14.89,18.52a6.43,6.43,0,0,1,0-12.85h.06a6.42,6.42,0,0,1,4.58,2,6.29,6.29,0,0,1,1.83,4.52A6.46,6.46,0,0,1,15,18.52Zm0-2.47a.28.28,0,0,1,.27.22.65.65,0,0,1,0,.21q0,.54,0,1.08a.37.37,0,0,0,.08.26.3.3,0,0,0,.21.08,6.07,6.07,0,0,0,3.09-1.27.28.28,0,0,0,.12-.21.27.27,0,0,0-.11-.23,1.89,1.89,0,0,1-.24-.26.29.29,0,0,1,0-.37.3.3,0,0,1,.2-.08.28.28,0,0,1,.16,0,1.51,1.51,0,0,1,.23.21.35.35,0,0,0,.25.14.34.34,0,0,0,.26-.16,6,6,0,0,0,1.23-3,.35.35,0,0,0-.06-.27.3.3,0,0,0-.24-.09H19.2a.29.29,0,0,1-.32-.28.28.28,0,0,1,.31-.29h1.2a.34.34,0,0,0,.27-.09.29.29,0,0,0,.06-.25,6,6,0,0,0-1.25-3,.34.34,0,0,0-.24-.13.31.31,0,0,0-.22.12,2.83,2.83,0,0,1-.25.24.3.3,0,0,1-.18.06.32.32,0,0,1-.2-.08.28.28,0,0,1,0-.39A2.73,2.73,0,0,1,18.59,8a.31.31,0,0,0,.12-.23.34.34,0,0,0-.13-.22,5.84,5.84,0,0,0-3-1.25h0a.34.34,0,0,0-.26.07.35.35,0,0,0-.09.26q0,.59,0,1.17a.31.31,0,0,1-.29.34c-.16,0-.27-.12-.29-.31a.92.92,0,0,1,0-.16V7.38c0-.23,0-.45,0-.67a.43.43,0,0,0-.09-.32.32.32,0,0,0-.25-.1h-.11a5.88,5.88,0,0,0-2.72,1.1c-.17.12-.29.21-.3.35s.08.24.24.41l.08.08a.29.29,0,0,1-.42.4,1.15,1.15,0,0,1-.22-.22.33.33,0,0,0-.23-.12.31.31,0,0,0-.24.14,5.79,5.79,0,0,0-1.24,3,.35.35,0,0,0,.06.29.33.33,0,0,0,.26.1h1.14c.23,0,.37.11.37.29s-.13.29-.36.29H9.5a.37.37,0,0,0-.3.1.4.4,0,0,0-.07.31,5.85,5.85,0,0,0,1.2,2.9.38.38,0,0,0,.28.18.34.34,0,0,0,.28-.17,1.54,1.54,0,0,1,.19-.17.28.28,0,0,1,.18-.06.32.32,0,0,1,.2.08.29.29,0,0,1,0,.38,1.2,1.2,0,0,1-.18.2.36.36,0,0,0-.16.27.37.37,0,0,0,.17.28,6,6,0,0,0,2.85,1.2h.13a.32.32,0,0,0,.24-.09.42.42,0,0,0,.1-.32v-.26a5.9,5.9,0,0,1,0-.94.27.27,0,0,1,.28-.23Z"/><path class="a" d="M14,12.38a.3.3,0,0,1-.34-.28c0-.17.13-.29.34-.3.52,0,.6-.1.6-.62v-.31c0-.22,0-.42,0-.62s.11-.33.28-.33a.31.31,0,0,1,.3.34c0,.21,0,.42,0,.63v.6c0,.17,0,.34,0,.51s-.1.38-.37.38H14Z"/></svg>