<svg xmlns="http://www.w3.org/2000/svg" width="25.26" height="24.84" viewBox="0 0 25.26 24.84"><defs><style>.a{fill:#5e5b5c;}</style></defs><title>Kelloggs_Sprite</title><path class="a" d="M8.29,17.08c1,1.47,2.08,2.78,2.77,3.63l.28.34H9.26a.43.43,0,0,0,0,.85H16a.43.43,0,0,0,0-.85H13.92l.29-.34c.69-.84,1.72-2.16,2.77-3.63a36.78,36.78,0,0,0,2.78-4.48,9.82,9.82,0,0,0,1.29-4.17,8.39,8.39,0,0,0-2.46-6,.42.42,0,0,0-.41-.11.41.41,0,0,0-.3.3.42.42,0,0,0,.11.41,7.58,7.58,0,0,1,2.22,5.36A9,9,0,0,1,19,12.22a36.71,36.71,0,0,1-2.72,4.38c-1,1.45-2,2.74-2.73,3.58l-.61.73a.44.44,0,0,1-.64,0l-.6-.73C11,19.34,10,18.05,9,16.6a36.71,36.71,0,0,1-2.72-4.38A9.08,9.08,0,0,1,5.05,8.43a7.58,7.58,0,0,1,10.53-7A.42.42,0,0,0,16,1.39.45.45,0,0,0,16.17,1a.44.44,0,0,0-.26-.34A8.42,8.42,0,0,0,4.21,8.43a9.86,9.86,0,0,0,1.3,4.17A36.78,36.78,0,0,0,8.29,17.08Z"/><path class="a" d="M12.63,4.63a.42.42,0,0,0,.42-.42.42.42,0,0,0-.42-.42,4.21,4.21,0,1,0,3,1.23.44.44,0,0,0-.41-.11.42.42,0,0,0-.19.71,3.36,3.36,0,1,1-2.38-1Z"/><path class="a" d="M1.31,24.84H24a1.27,1.27,0,0,0,1.13-.63,1.23,1.23,0,0,0,0-1.23l-2.59-4.63a1.31,1.31,0,0,0-1.15-.66h-3a.42.42,0,0,0-.42.42.42.42,0,0,0,.42.42h3a.45.45,0,0,1,.41.23l2.59,4.63a.39.39,0,0,1,0,.39A.47.47,0,0,1,24,24H1.31a.45.45,0,0,1-.41-.22.39.39,0,0,1,0-.39l2.59-4.63a.48.48,0,0,1,.41-.23h3a.42.42,0,0,0,.42-.42.42.42,0,0,0-.42-.42h-3a1.29,1.29,0,0,0-1.14.66L.16,23a1.23,1.23,0,0,0,0,1.23A1.29,1.29,0,0,0,1.31,24.84Z"/><path class="a" d="M20.63,19.79H19a.48.48,0,0,0-.24.07l-1.26.84a.43.43,0,1,0,.47.71l1.15-.78h1.56a.42.42,0,0,0,.42-.42A.42.42,0,0,0,20.63,19.79Z"/><path class="a" d="M18.11,22.74a.42.42,0,0,0,.42.42H21.9a.42.42,0,1,0,0-.84H18.53A.42.42,0,0,0,18.11,22.74Z"/><path class="a" d="M7.58,21.48a.43.43,0,0,0,.4-.3.42.42,0,0,0-.17-.48l-1.26-.84a.48.48,0,0,0-.23-.07H4.63a.42.42,0,0,0-.42.42.42.42,0,0,0,.42.42H6.19l1.16.78A.48.48,0,0,0,7.58,21.48Z"/><path class="a" d="M3.37,22.32a.42.42,0,1,0,0,.84H6.74a.42.42,0,1,0,0-.84Z"/></svg>