<svg xmlns="http://www.w3.org/2000/svg" width="16.64" height="21.32" viewBox="0 0 16.64 21.32"><defs><style>.a{fill:#5e5b5c;fill-rule:evenodd;}</style></defs><title>Kelloggs_Sprite</title><path class="a" d="M8.32,21.32a2.92,2.92,0,0,1-1.87-.69,3,3,0,0,1-1-1.7V15.31a5.49,5.49,0,0,1,0-.58,3.12,3.12,0,0,0-.86-1.66,8.52,8.52,0,0,1-1.6-3,.37.37,0,0,1,0-.25.33.33,0,0,1,.2-.15h0a.35.35,0,0,1,.37.23,7.78,7.78,0,0,0,1.49,2.78,3.63,3.63,0,0,1,1,2.05V15H8V13.91a.33.33,0,0,1,.66,0V15h1.93v-.24a3.63,3.63,0,0,1,1-2.05,6.78,6.78,0,0,0,1.69-4.36A4.95,4.95,0,0,0,3.62,6.77.32.32,0,0,1,3.31,7H3.2A.35.35,0,0,1,3,6.81a.36.36,0,0,1,0-.25A5.61,5.61,0,0,1,13.93,8.32a7.37,7.37,0,0,1-1.82,4.75,3.19,3.19,0,0,0-.86,1.66,5.17,5.17,0,0,1,0,.57v3.56a3,3,0,0,1-1,1.77A2.92,2.92,0,0,1,8.32,21.32Zm-2.07-2a2.27,2.27,0,0,0,4.14,0l.06-.13H6.19Zm-.17-.79h4.48V17.41H6.08Zm0-1.78h4.48V15.63H6.08Z"/><path class="a" d="M8.32,1.78A.33.33,0,0,1,8,1.45V.33a.33.33,0,1,1,.66,0V1.45A.33.33,0,0,1,8.32,1.78Z"/><path class="a" d="M.33,8.65A.33.33,0,1,1,.33,8H1.45a.33.33,0,1,1,0,.66Z"/><path class="a" d="M8.32,10.88A.33.33,0,0,1,8,10.55V9.5H6.82a.33.33,0,0,1,0-.66h3a.33.33,0,0,1,0,.66H8.65v1.05A.33.33,0,0,1,8.32,10.88Z"/><path class="a" d="M3.46,3.79a.29.29,0,0,1-.23-.1L2.44,2.9a.32.32,0,0,1,0-.46.31.31,0,0,1,.46,0l.79.79a.32.32,0,0,1,0,.46A.29.29,0,0,1,3.46,3.79Z"/><path class="a" d="M2.38,14.59a.29.29,0,0,1-.23-.1.32.32,0,0,1,0-.46l.79-.79a.31.31,0,0,1,.46,0,.32.32,0,0,1,0,.46l-.79.79A.29.29,0,0,1,2.38,14.59Z"/><path class="a" d="M13.18,3.79a.29.29,0,0,1-.23-.1.32.32,0,0,1,0-.46l.79-.79a.31.31,0,0,1,.46,0,.32.32,0,0,1,0,.46l-.79.79A.29.29,0,0,1,13.18,3.79Z"/><path class="a" d="M14.26,14.59a.29.29,0,0,1-.23-.1l-.79-.79a.32.32,0,0,1,0-.46.31.31,0,0,1,.46,0l.79.79a.32.32,0,0,1,0,.46A.29.29,0,0,1,14.26,14.59Z"/><path class="a" d="M15.19,8.65a.33.33,0,1,1,0-.66h1.12a.33.33,0,1,1,0,.66Z"/><path class="a" d="M8.32,12.56a.33.33,0,1,1,.33-.33A.33.33,0,0,1,8.32,12.56Z"/><path class="a" d="M3,8.65a.33.33,0,1,1,.33-.33A.33.33,0,0,1,3,8.65Z"/></svg>