<svg xmlns="http://www.w3.org/2000/svg" width="14.44" height="13.77" viewBox="0 0 14.44 13.77"><defs><style>.a{isolation:isolate;}.b{fill:#c6c6c6;}.c{fill:#d1d1d1;opacity:0.8;mix-blend-mode:multiply;}</style></defs><title>Kelloggs_Sprite</title><g class="a"><path class="b" d="M14.1,5,9.43,4.54,7.57.23a.37.37,0,0,0-.69,0L5,4.54.34,5a.37.37,0,0,0-.21.65l3.53,3.1-1,4.59a.38.38,0,0,0,.56.4l4-2.4,4,2.4a.37.37,0,0,0,.56-.4l-1-4.59,3.53-3.1A.37.37,0,0,0,14.1,5Z"/><path class="c" d="M7.57.23a.37.37,0,0,0-.69,0L5,4.54.34,5a.37.37,0,0,0-.21.65l3.53,3.1-1,4.59a.38.38,0,0,0,.56.4l.9-.53A16.57,16.57,0,0,1,8.49,2.36Z"/></g></svg>